<svg xmlns="http://www.w3.org/2000/svg" width="1017.8" height="1030.61" viewBox="0 0 1017.8 1030.61"><defs><style>.da8badf2-12f9-4e6c-8078-a81b2ea03c6b{fill:#2b2b2b;}</style></defs><title>pattern-swirl</title><g id="d74c9eb9-7d6e-418f-9311-00b7c3f7c9b5" data-name="Layer 2"><g id="b737c363-d46d-47a9-8f27-16bcdaf41625" data-name="Layer 1"><path class="da8badf2-12f9-4e6c-8078-a81b2ea03c6b" d="M525.69,5.33c1.11,7,2.88,14,4.59,20.71,1.1,4.34,2.24,8.83,3.18,13.27,1.33,6.25.14,12.46-3.21,16.61-3.19,4-8.3,6.08-14.77,6.11-4.73,0-9.55-.3-14.22-.61-1.74-.12-3.48-.23-5.21-.33-13.4-.77-23.73-1.39-33.5-2a46,46,0,0,1-26.88-10.32A188,188,0,0,1,395,2.45,19.81,19.81,0,0,1,393.76,0h-2.18a22.45,22.45,0,0,0,1.74,3.51,190,190,0,0,0,41.08,46.8,47.91,47.91,0,0,0,28,10.77c9.77.62,20.1,1.23,33.5,2,1.73.1,3.46.22,5.2.33,4.56.31,9.27.62,13.92.62h.44c7.09,0,12.73-2.4,16.31-6.85,3.72-4.62,5.07-11.45,3.61-18.29-1-4.47-2.1-9-3.2-13.34-1.71-6.74-3.47-13.71-4.57-20.65a1,1,0,0,0-.06-.23c0-.07-.73-1.78-1.6-4.68H523.9C524.76,2.94,525.5,4.85,525.69,5.33Z"/><path class="da8badf2-12f9-4e6c-8078-a81b2ea03c6b" d="M436.21,602.28a1,1,0,0,0,.46-1.89,106.69,106.69,0,0,0-11.08-4.93,1,1,0,1,0-.72,1.87,104.58,104.58,0,0,1,10.87,4.84A1,1,0,0,0,436.21,602.28Z"/><path class="da8badf2-12f9-4e6c-8078-a81b2ea03c6b" d="M405.31,671.78a1,1,0,0,0,.47-.12A94.79,94.79,0,0,0,416,665.2a1,1,0,1,0-1.17-1.62,92.6,92.6,0,0,1-10,6.32,1,1,0,0,0,.48,1.88Z"/><path class="da8badf2-12f9-4e6c-8078-a81b2ea03c6b" d="M452.94,618.54a1,1,0,0,0,1-1.25c-.9-3.53-3.27-7-7-10.19a1,1,0,0,0-1.31,1.52c3.44,3,5.59,6.05,6.39,9.17A1,1,0,0,0,452.94,618.54Z"/><path class="da8badf2-12f9-4e6c-8078-a81b2ea03c6b" d="M432.71,647.85c-1.58,1.65-3.06,3.13-4.51,4.53s-2.72,2.56-4.06,3.75a1,1,0,0,0,1.33,1.5c1.36-1.2,2.74-2.48,4.12-3.8s3-2.92,4.58-4.59a1,1,0,1,0-1.45-1.38Z"/><path class="da8badf2-12f9-4e6c-8078-a81b2ea03c6b" d="M413.85,593.52a1,1,0,0,0,.29-2c-3.73-1.13-7.66-2.19-11.66-3.17a1,1,0,1,0-.47,1.94c4,1,7.86,2,11.56,3.14A1,1,0,0,0,413.85,593.52Z"/><path class="da8badf2-12f9-4e6c-8078-a81b2ea03c6b" d="M449.83,628.43c-.34.55-.73,1.11-1.08,1.59-2.1,2.3-4.19,4.68-6.21,7l-1.77,2a1,1,0,1,0,1.5,1.32l1.77-2c2-2.29,4.1-4.66,6.25-7,.45-.6.87-1.21,1.24-1.8a1,1,0,1,0-1.7-1.06Z"/><path class="da8badf2-12f9-4e6c-8078-a81b2ea03c6b" d="M270.43,674.3l1.09.67c2.69,1.62,5.63,3.21,9.51,5.16a1,1,0,1,0,.9-1.79c-3.83-1.92-6.73-3.49-9.38-5.08l-1.05-.65a1,1,0,0,0-1.07,1.69Z"/><path class="da8badf2-12f9-4e6c-8078-a81b2ea03c6b" d="M264.19,642.89a1,1,0,0,0,.91-.58,47.9,47.9,0,0,1,6.28-9.9,1,1,0,0,0-1.56-1.25,49.89,49.89,0,0,0-6.53,10.31,1,1,0,0,0,.91,1.42Z"/><path class="da8badf2-12f9-4e6c-8078-a81b2ea03c6b" d="M295.35,605.59a119.58,119.58,0,0,0,6.34-10.3,1,1,0,1,0-1.76-1,117.21,117.21,0,0,1-6.23,10.13,1,1,0,0,0,1.65,1.13Z"/><path class="da8badf2-12f9-4e6c-8078-a81b2ea03c6b" d="M291.35,684.09a1,1,0,0,0,.45,1.34l1.44.71c3.06,1.52,6.22,3.08,9.35,4.58a1,1,0,1,0,.86-1.8c-3.12-1.49-6.27-3.05-9.32-4.57l-1.44-.71A1,1,0,0,0,291.35,684.09Z"/><path class="da8badf2-12f9-4e6c-8078-a81b2ea03c6b" d="M287.92,613.81a1,1,0,0,0-1.41.13c-2.49,3-5.19,5.94-8,8.8a1,1,0,1,0,1.42,1.41c2.87-2.9,5.61-5.9,8.13-8.93A1,1,0,0,0,287.92,613.81Z"/><path class="da8badf2-12f9-4e6c-8078-a81b2ea03c6b" d="M261.11,652.41a1,1,0,0,0-1.09.9c-.1,1.07-.15,2.16-.15,3.25a36.28,36.28,0,0,0,.2,3.74,15,15,0,0,0,1.56,5.31,1,1,0,1,0,1.78-.91,13.07,13.07,0,0,1-1.35-4.61,34.17,34.17,0,0,1-.19-3.53c0-1,0-2.05.14-3.06A1,1,0,0,0,261.11,652.41Z"/><path class="da8badf2-12f9-4e6c-8078-a81b2ea03c6b" d="M390.22,587.76a1,1,0,0,0,.24,0,1,1,0,0,0,.24-2,104.47,104.47,0,0,1-11.36-3.48,1,1,0,0,0-.7,1.88A106.56,106.56,0,0,0,390.22,587.76Z"/><path class="da8badf2-12f9-4e6c-8078-a81b2ea03c6b" d="M383.06,680.68a1,1,0,0,0,.32-.05c4.28-1.43,8-2.74,11.35-4a1,1,0,0,0-.7-1.87c-3.34,1.25-7,2.55-11.28,4a1,1,0,0,0,.32,1.95Z"/><path class="da8badf2-12f9-4e6c-8078-a81b2ea03c6b" d="M313.63,695.63a34.06,34.06,0,0,0,12,2.22h.13a1,1,0,0,0,0-2h-.15a32.05,32.05,0,0,1-11.24-2.09,1,1,0,1,0-.7,1.87Z"/><path class="da8badf2-12f9-4e6c-8078-a81b2ea03c6b" d="M309,572.39a104.56,104.56,0,0,1-3.9,11.22,1,1,0,1,0,1.85.76,106.53,106.53,0,0,0,4-11.43,1,1,0,0,0-1.92-.55Z"/><path class="da8badf2-12f9-4e6c-8078-a81b2ea03c6b" d="M368,579.38a1,1,0,0,0,.47-1.88,82.63,82.63,0,0,1-10-6.28,1,1,0,1,0-1.18,1.62,84.81,84.81,0,0,0,10.29,6.43A1,1,0,0,0,368,579.38Z"/><path class="da8badf2-12f9-4e6c-8078-a81b2ea03c6b" d="M312.38,537.14a1,1,0,0,0,1,.9h.1a1,1,0,0,0,.9-1.09,53.17,53.17,0,0,0-1.37-8.19h0c-.5-1.47-.84-2.6-1.12-3.67a1,1,0,0,0-1.94.51c.29,1.12.65,2.28,1.16,3.78A54.07,54.07,0,0,1,312.38,537.14Z"/><path class="da8badf2-12f9-4e6c-8078-a81b2ea03c6b" d="M312.38,561.95h.16a1,1,0,0,0,1-.84,99.14,99.14,0,0,0,1.2-12.06,1,1,0,0,0-1-1,1,1,0,0,0-1,1,97.27,97.27,0,0,1-1.17,11.81A1,1,0,0,0,312.38,561.95Z"/><path class="da8badf2-12f9-4e6c-8078-a81b2ea03c6b" d="M371.34,682.44l-.29.09c-3.3,1.06-6.59,2.12-9.88,3.21l-1.25.41a1,1,0,0,0,.31,2,1,1,0,0,0,.31,0l1.25-.41c3.28-1.08,6.57-2.14,9.86-3.2l.29-.09a1,1,0,0,0-.61-1.9Z"/><path class="da8badf2-12f9-4e6c-8078-a81b2ea03c6b" d="M338.82,542.63a1,1,0,0,0,2,0v-.53q0-1,0-1.93c0-3.13-.13-6.37-.38-9.61a1,1,0,1,0-2,.15c.25,3.19.37,6.37.37,9.46q0,.95,0,1.89Z"/><path class="da8badf2-12f9-4e6c-8078-a81b2ea03c6b" d="M332.82,507.79a1,1,0,0,0-1.19,1.61,13.43,13.43,0,0,1,5.19,8.4l.19,1.11a1,1,0,0,0,1,.83h.17a1,1,0,0,0,.82-1.15l-.19-1.12A15.44,15.44,0,0,0,332.82,507.79Z"/><path class="da8badf2-12f9-4e6c-8078-a81b2ea03c6b" d="M348.5,689.81c-3.38,1.08-7.38,2.39-11.4,3.86a1,1,0,1,0,.68,1.88c4-1.45,8-2.75,11.33-3.83a1,1,0,0,0-.61-1.9Z"/><path class="da8badf2-12f9-4e6c-8078-a81b2ea03c6b" d="M348.78,565.23a1,1,0,0,0,.72-1.69,32,32,0,0,1-6.46-9.6,1,1,0,1,0-1.84.78,34,34,0,0,0,6.85,10.2A1,1,0,0,0,348.78,565.23Z"/><path class="da8badf2-12f9-4e6c-8078-a81b2ea03c6b" d="M311.12,514.52a1,1,0,0,0,1.36-.4,14,14,0,0,1,8.61-6.68,1,1,0,1,0-.52-1.93,16.06,16.06,0,0,0-9.85,7.66A1,1,0,0,0,311.12,514.52Z"/><path class="da8badf2-12f9-4e6c-8078-a81b2ea03c6b" d="M258.36,444.39c7.23,2.53,15.09,3.45,24.75,2.9,10.66-.61,20.66-2.87,29.88-5.23a190.88,190.88,0,0,0,50.58-21.16A51.62,51.62,0,0,1,377,415.18c3.71-.95,6.21.86,8.64,6.23q2.23,4.92,4.49,9.82c3.33,7.24,6.76,14.73,9.93,22.16l.83,1.95c3.44,8.07,7,16.41,9.43,24.85,1.3,4.51,1.67,9.26,2.07,14.28.16,2.08.33,4.23.57,6.33l.2,1.75c.79,7.18,1.6,14.61,6.79,20.79,4.46,5.3,10.6,8,18.33,8a38.6,38.6,0,0,0,5.44-.4c17.38-2.47,30-8.17,39.67-17.91,7.52-7.57,10-17.33,12.39-26.77l.58-2.27c2.45-9.64,5-19.61,6.4-29.62,1.63-11.48-2-22.12-10.83-31.62-9-9.72-20.58-15.12-31.74-19.51-13.1-5.16-27.54-9-45.42-12a92.26,92.26,0,0,0-18.88-1c-4.85.19-8.26-2.11-10.44-7a83.6,83.6,0,0,1-5.41-17.53c-.89-4.46-1.43-9.11-2-13.6-.35-3-.72-6.18-1.19-9.28-1.13-7.41-9-14.86-17.7-13.75a39.63,39.63,0,0,1-6.2.12c-1,0-2-.07-3-.07l-.25,0a2,2,0,0,0-.92.1l-7.41,2.6c-5.45,1.91-11.09,3.88-16.61,5.93-11.46,4.27-20,13.31-26,27.64-6.66,15.83-16.31,31.39-30.36,49-4.18,5.23-9,11.33-13.53,17.6-2.43,3.37-2.33,6-1.82,7.62S254.88,443.17,258.36,444.39Zm-.2-10.09c4.46-6.2,9.26-12.25,13.41-17.44,14.29-17.88,24.11-33.75,30.92-49.92,5.66-13.44,13.19-21.53,23.71-25.44,5.48-2,11.1-4,16.53-5.9l7.12-2.5H350c1,0,1.94,0,2.91.06a43.07,43.07,0,0,0,6.83-.14c6.43-.83,12.4,4.92,13.24,10.39.46,3,.82,6.13,1.17,9.13.53,4.58,1.08,9.31,2,13.93a87.55,87.55,0,0,0,5.67,18.37c2.84,6.38,7.79,9.6,14.24,9.38a88.28,88.28,0,0,1,18.07,1c17.61,3,31.79,6.71,44.63,11.76,10.72,4.22,21.8,9.38,30.27,18.51,8,8.57,11.25,18.11,9.8,28.34-1.39,9.8-3.89,19.66-6.32,29.19l-.58,2.28c-2.37,9.33-4.6,18.14-11.35,24.94-9,9.1-20.92,14.42-37.4,16.77-9,1.28-15.57-.74-20.14-6.18-4.41-5.24-5.12-11.75-5.88-18.65l-.2-1.77c-.23-2-.4-4.15-.56-6.2a76.21,76.21,0,0,0-2.21-15.07c-2.49-8.69-6.11-17.14-9.6-25.32l-.83-1.95c-3.19-7.49-6.64-15-10-22.26q-2.25-4.9-4.48-9.8c-1.05-2.32-4-8.82-10.5-8.82a11.18,11.18,0,0,0-2.78.37,55.68,55.68,0,0,0-14.52,6.15A186.86,186.86,0,0,1,312,438.18c-9,2.31-18.79,4.53-29.11,5.11-9.12.52-16.5-.33-23.21-2.68-1.06-.37-2.4-1.06-2.77-2.23S257,435.88,258.16,434.29Z"/><path class="da8badf2-12f9-4e6c-8078-a81b2ea03c6b" d="M315.84,414.12a12.61,12.61,0,0,0,1.77-.13c11.51-1.65,19.85-7.69,24.79-18,3-6.19,3.48-13,1.52-20.68A12.09,12.09,0,0,0,332,366.09a.71.71,0,0,0-.26,0,1,1,0,0,0-.52,0c-6.08,1.73-10.94,6.14-14.45,13.1a175.3,175.3,0,0,0-9.13,23.08c-1.11,3.32-.66,6.54,1.24,8.82A8.83,8.83,0,0,0,315.84,414.12Zm-6.31-11.18a173.64,173.64,0,0,1,9-22.81c3.24-6.43,7.68-10.49,13.19-12.07l.24,0a10.14,10.14,0,0,1,10,7.75c1.83,7.25,1.38,13.58-1.39,19.33-4.64,9.63-12.47,15.3-23.28,16.84-2.9.42-5.43-.37-6.92-2.17A7.07,7.07,0,0,1,309.53,402.94Z"/><path class="da8badf2-12f9-4e6c-8078-a81b2ea03c6b" d="M424.77,447.07c6.52,9.74,13.53,19.39,20.3,28.71l.63.87a11,11,0,0,0,9,4.66h.41a12.71,12.71,0,0,0,10.19-6.22c4.83-7.76,9.46-17.24,7.2-28.7-2.2-11.13-9.3-18.85-21.7-23.59a60.55,60.55,0,0,0-11.45-2.74c-1.7-.29-3.46-.59-5.15-1a1,1,0,0,0-.46,0,1,1,0,0,0-.56,0c-11,3.54-13.24,6.82-12.06,17.55A23.93,23.93,0,0,0,424.77,447.07Zm9-26h0c1.73.37,3.51.67,5.22,1a59.21,59.21,0,0,1,11.07,2.63c11.71,4.48,18.4,11.71,20.46,22.11,2.13,10.78-2.31,19.83-6.93,27.26a10.58,10.58,0,0,1-8.56,5.28,9.05,9.05,0,0,1-7.72-3.83l-.63-.87c-6.76-9.31-13.75-18.94-20.26-28.65a21.86,21.86,0,0,1-3.32-9.49C422,426.75,423.73,424.29,433.74,421.06Z"/><path class="da8badf2-12f9-4e6c-8078-a81b2ea03c6b" d="M221,457.82a4.77,4.77,0,0,0,1.34-2,37.79,37.79,0,0,0,.83-4.72c.08-.62.17-1.25.26-1.86a1,1,0,0,0-.84-1.14c-.64-.1-1.29-.26-2-.42a11.12,11.12,0,0,0-4.85-.45c-3,.63-5.94,1.46-8.81,2.26-3.33.93-6.78,1.9-10.21,2.53-10.84,2-21.75,3.69-32.43,5l-5,.63c-11.11,1.4-22.6,2.85-33.92,3.27-19.57.75-37.49-5.84-53.36-19.53-7.14-6.16-14.89-12.44-24.29-15.68a87.76,87.76,0,0,0-10.06-2.59c-1.51-.33-3-.65-4.51-1a1,1,0,0,0-.48,0,1,1,0,0,0-.45,0c-5.7,1.14-10.21,4.44-14.2,10.38C13.73,439,8.2,446.17,0,451.05v2.3c9.1-5.08,15.09-12.82,19.75-19.76,3.73-5.55,7.71-8.49,12.93-9.53h.07c1.51.36,3,.69,4.55,1a86.22,86.22,0,0,1,9.83,2.53c9.07,3.12,16.65,9.27,23.64,15.3,16.27,14,34.7,20.78,54.74,20,11.4-.43,22.94-1.88,34.09-3.29l5-.63c10.72-1.33,21.67-3,32.55-5,3.51-.65,7-1.63,10.38-2.57,2.84-.79,5.77-1.62,8.68-2.23a9.59,9.59,0,0,1,4,.44l1.17.27q-.07.47-.13.95a35.69,35.69,0,0,1-.78,4.47,3.43,3.43,0,0,1-.85,1.13,8.13,8.13,0,0,0-.94,1.1c-11,16.57-14.32,35.44-10,57.71,1.48,7.63,3.66,15.23,5.78,22.58,1,3.61,2.11,7.33,3.08,11,2.61,9.86-4.37,25.52-11.48,30-2.45,1.55-4.4,1.51-6.33-.11a109.51,109.51,0,0,1-8.8-8.65l-.67-.71a50.9,50.9,0,0,0-19.41-12.69A118.16,118.16,0,0,0,142.62,550a141.21,141.21,0,0,0-16.23-1,129.19,129.19,0,0,0-20.06,1.56c-2.72.43-5.47.94-8.13,1.44-8.46,1.58-17.22,3.21-26.11,2.19-7-.8-14.17-2-19.26-7.41A95.21,95.21,0,0,1,39.49,529.5C31,515,19,504.56,2.9,497.63l-1.16-.5L0,496.39v2.18L1,499l1.16.5c15.74,6.75,27.4,16.91,35.65,31a97.11,97.11,0,0,0,13.62,17.65c5.55,5.86,13.16,7.18,20.48,8,9.19,1.06,18.09-.6,26.7-2.21,2.65-.49,5.38-1,8.08-1.43a131,131,0,0,1,35.75-.59,116.2,116.2,0,0,1,27.74,6.6,48.92,48.92,0,0,1,18.66,12.19l.67.71a110.92,110.92,0,0,0,9,8.81,6.6,6.6,0,0,0,4.31,1.71,8.23,8.23,0,0,0,4.37-1.44c7.81-4.93,15.2-21.43,12.35-32.21-1-3.7-2.05-7.44-3.09-11.05-2.1-7.31-4.28-14.87-5.74-22.41-4.21-21.72-1-40.11,9.71-56.22A6.59,6.59,0,0,1,221,457.82Z"/><path class="da8badf2-12f9-4e6c-8078-a81b2ea03c6b" d="M268.37,6.07A40.36,40.36,0,0,0,271.06,0h-2.12a38.31,38.31,0,0,1-2.32,5.11c-8.93,16.33-18.55,29.65-29.4,40.72-13.29,13.55-17.6,30.37-13.59,52.91.51,2.88,1.07,5.75,1.62,8.62,2.21,11.41,4.5,23.22,3.78,35.17-1.11,18.55-11,23.57-19.17,24.51a150,150,0,0,1-16.38,1h-.17c-13,0-22.16-8.44-23.35-21.54-1.33-14.61-3.74-26.44-7.6-37.22C157.63,96,152.86,81.85,151.15,67,149.22,50.19,145.31,37,138.84,25.6c-4.79-8.47-6.3-17-4.57-25.6h-2c-1.67,8.92-.08,17.93,4.81,26.59,6.33,11.2,10.17,24.1,12.06,40.59,1.74,15.1,6.54,29.41,11.31,42.77,3.8,10.63,6.18,22.3,7.49,36.73,1.29,14.21,11.23,23.36,25.34,23.36h.19a151.85,151.85,0,0,0,16.6-1c12.57-1.46,20-10.83,20.93-26.38.73-12.21-1.58-24.14-3.81-35.67-.55-2.86-1.11-5.72-1.62-8.59-3.89-21.85.25-38.11,13-51.16C249.62,36,259.34,22.56,268.37,6.07Z"/><path class="da8badf2-12f9-4e6c-8078-a81b2ea03c6b" d="M165.54,475.69a102.53,102.53,0,0,0-12.14-.86h0a1.5,1.5,0,0,0,0,3,99.65,99.65,0,0,1,11.79.83h.21a1.5,1.5,0,0,0,.21-3Z"/><path class="da8badf2-12f9-4e6c-8078-a81b2ea03c6b" d="M140.55,532.74a1.5,1.5,0,0,0,1.5,1.41h.09c4.44-.26,8.39-.66,12.07-1.23a1.5,1.5,0,0,0-.46-3c-3.59.55-7.45.95-11.79,1.2A1.5,1.5,0,0,0,140.55,532.74Z"/><path class="da8badf2-12f9-4e6c-8078-a81b2ea03c6b" d="M183.61,502.29c-.06.93-.11,1.85-.13,2.76A26.67,26.67,0,0,1,182,513.6a1.5,1.5,0,0,0,.9,1.92,1.48,1.48,0,0,0,.51.09,1.5,1.5,0,0,0,1.41-1,29.65,29.65,0,0,0,1.67-9.51c0-.88.07-1.76.13-2.72a1.47,1.47,0,0,0-1.41-1.55A1.56,1.56,0,0,0,183.61,502.29Z"/><path class="da8badf2-12f9-4e6c-8078-a81b2ea03c6b" d="M177.42,479.78a1.5,1.5,0,0,0-1.69,2.48,17.21,17.21,0,0,1,6.41,8.79,1.5,1.5,0,0,0,2.82-1A20.32,20.32,0,0,0,177.42,479.78Z"/><path class="da8badf2-12f9-4e6c-8078-a81b2ea03c6b" d="M165.24,527.38a1.5,1.5,0,0,0,.88,2.87c1.16-.36,2.31-.74,3.42-1.14a28.33,28.33,0,0,0,7.83-4.24,1.5,1.5,0,0,0-1.85-2.37,25.37,25.37,0,0,1-7,3.78C167.46,526.67,166.35,527,165.24,527.38Z"/><path class="da8badf2-12f9-4e6c-8078-a81b2ea03c6b" d="M93,484.28a61,61,0,0,0-10.93,5.58,1.5,1.5,0,0,0,1.63,2.52,58,58,0,0,1,10.4-5.31,1.5,1.5,0,0,0-1.1-2.79Z"/><path class="da8badf2-12f9-4e6c-8078-a81b2ea03c6b" d="M74.8,520.91a1.5,1.5,0,1,0-2.5,1.67,25.42,25.42,0,0,0,9.47,8.36,1.5,1.5,0,0,0,1.36-2.67A22.37,22.37,0,0,1,74.8,520.91Z"/><path class="da8badf2-12f9-4e6c-8078-a81b2ea03c6b" d="M75,498a1.5,1.5,0,0,0-2.09.37,21.49,21.49,0,0,0-4.06,12,1.5,1.5,0,0,0,1.47,1.53h0a1.5,1.5,0,0,0,1.5-1.47,18.53,18.53,0,0,1,3.52-10.37A1.5,1.5,0,0,0,75,498Z"/><path class="da8badf2-12f9-4e6c-8078-a81b2ea03c6b" d="M116.5,478.21c-3.29.59-7.61,1.4-11.84,2.44a1.5,1.5,0,1,0,.71,2.91c4.15-1,8.41-1.82,11.66-2.4a1.5,1.5,0,1,0-.53-3Z"/><path class="da8badf2-12f9-4e6c-8078-a81b2ea03c6b" d="M92.57,532A1.5,1.5,0,0,0,94,533.61c4.65.24,8.47.41,12,.55h.06a1.5,1.5,0,0,0,.06-3c-3.53-.14-7.33-.31-12-.55A1.48,1.48,0,0,0,92.57,532Z"/><path class="da8badf2-12f9-4e6c-8078-a81b2ea03c6b" d="M118.08,531.51a1.5,1.5,0,0,0-.05,3c2.54,0,5.05.07,7.45.07l4.59,0a1.5,1.5,0,0,0,0-3h0C126.13,531.6,122.22,531.59,118.08,531.51Z"/><path class="da8badf2-12f9-4e6c-8078-a81b2ea03c6b" d="M141.42,474.6H141a1.29,1.29,0,0,0-.31,0,1.47,1.47,0,0,0-.47,0c-2.12.31-4.24.61-6.37.9l-5.51.78a1.5,1.5,0,0,0,.21,3l.22,0,5.5-.78c2.13-.3,4.26-.59,6.39-.9h0l.19,0h.38a1.5,1.5,0,1,0,.12-3Z"/><path class="da8badf2-12f9-4e6c-8078-a81b2ea03c6b" d="M12.12,161.65a135.2,135.2,0,0,1-.93-16.19c0-2.62-.09-5.33-.21-8-.3-6.62-.6-13.09-1-19.55a28.34,28.34,0,0,0-10-20v9a22.05,22.05,0,0,1,4,11.45c.41,6.41.71,12.86,1,19.44.12,2.59.16,5.26.21,7.84a139.62,139.62,0,0,0,1,16.91c1.61,11.51,1.11,20.17-1.61,28.1A57.3,57.3,0,0,1,0,200.5v11a73.92,73.92,0,0,0,10.24-19C13.29,183.66,13.87,174.14,12.12,161.65Z"/><path class="da8badf2-12f9-4e6c-8078-a81b2ea03c6b" d="M529.22,179.7c-1.86,1.62-3.79,3.29-5.75,4.81a1,1,0,0,0,1.22,1.59c2-1.55,4-3.24,5.85-4.88l1.59-1.38a22.5,22.5,0,0,0,1.76-1.69,1,1,0,1,0-1.46-1.37,20.83,20.83,0,0,1-1.6,1.54Z"/><path class="da8badf2-12f9-4e6c-8078-a81b2ea03c6b" d="M358.33,135.24c1.58,1.59,3.21,3.18,4.87,4.73a1,1,0,0,0,1.37-1.46c-1.64-1.54-3.26-3.11-4.82-4.68A37.18,37.18,0,0,1,356.4,130a1,1,0,0,0-1.6,1.2A39.19,39.19,0,0,0,358.33,135.24Z"/><path class="da8badf2-12f9-4e6c-8078-a81b2ea03c6b" d="M423.44,84.18c.71.66,1.44,1.31,2.19,1.93a1,1,0,1,0,1.28-1.54c-.71-.59-1.42-1.22-2.1-1.86-2-1.9-4.16-4-6.5-6.36a1,1,0,1,0-1.42,1.4C419.24,80.16,421.38,82.26,423.44,84.18Z"/><path class="da8badf2-12f9-4e6c-8078-a81b2ea03c6b" d="M419,153.24q2.48,0,5,0c2.55.07,4.83.17,7,.29H431a1,1,0,0,0,.05-2c-2.16-.12-4.46-.22-7-.29q-2.52-.07-5,0a1,1,0,0,0-1,1A1,1,0,0,0,419,153.24Z"/><path class="da8badf2-12f9-4e6c-8078-a81b2ea03c6b" d="M358.08,61.77a1,1,0,1,0-1.82-.83c-.61,1.32-1.2,2.77-1.75,4.3-.84,2.33-1.62,4.73-2.31,7.14a1,1,0,1,0,1.92.55c.68-2.37,1.45-4.72,2.27-7C356.93,64.44,357.5,63,358.08,61.77Z"/><path class="da8badf2-12f9-4e6c-8078-a81b2ea03c6b" d="M375.46,45.86a1,1,0,0,0-1.2-.74,23.84,23.84,0,0,0-11,5.71,1,1,0,0,0,1.35,1.47,21.89,21.89,0,0,1,10.08-5.23A1,1,0,0,0,375.46,45.86Z"/><path class="da8badf2-12f9-4e6c-8078-a81b2ea03c6b" d="M382.24,48.1a26.91,26.91,0,0,1,9.29,4.39,1,1,0,0,0,1.16-1.63,28.9,28.9,0,0,0-10-4.7q-.65-.16-1.31-.28a1,1,0,1,0-.36,2C381.45,47.92,381.84,48,382.24,48.1Z"/><path class="da8badf2-12f9-4e6c-8078-a81b2ea03c6b" d="M374.41,149.8a22.8,22.8,0,0,0,8.45,4.34,1,1,0,0,0,.53-1.93,20.81,20.81,0,0,1-7.72-4l-2.18-1.81a1,1,0,0,0-1.29,1.53Z"/><path class="da8badf2-12f9-4e6c-8078-a81b2ea03c6b" d="M523.74,143.94q-3.08-3.58-6.19-7.14a1,1,0,0,0-1.51,1.31q3.1,3.55,6.18,7.13l1.69,1.94a1,1,0,0,0,1.5-1.32Q524.57,144.91,523.74,143.94Z"/><path class="da8badf2-12f9-4e6c-8078-a81b2ea03c6b" d="M395,154.84h.07c2.77-.18,5.58-.42,8.29-.64l3.69-.3a1,1,0,1,0-.16-2l-3.69.3c-2.71.23-5.51.46-8.26.64a1,1,0,0,0,.06,2Z"/><path class="da8badf2-12f9-4e6c-8078-a81b2ea03c6b" d="M493.32,110a51.34,51.34,0,0,0-10.4-6.4,1,1,0,0,0-.84,1.82,49.31,49.31,0,0,1,10,6.15,1,1,0,0,0,1.24-1.57Z"/><path class="da8badf2-12f9-4e6c-8078-a81b2ea03c6b" d="M471.37,99.74c-1.36-.3-2.77-.57-4.2-.8-2.53-.4-5.09-.87-7.61-1.4a1,1,0,0,0-.41,2c2.55.54,5.15,1,7.71,1.42,1.38.22,2.75.48,4.08.77l.22,0a1,1,0,0,0,.22-2Z"/><path class="da8badf2-12f9-4e6c-8078-a81b2ea03c6b" d="M465,159.9a1,1,0,0,0,.45,1.34,52.09,52.09,0,0,1,9.84,6.41,1,1,0,1,0,1.28-1.54,54,54,0,0,0-10.22-6.65A1,1,0,0,0,465,159.9Z"/><path class="da8badf2-12f9-4e6c-8078-a81b2ea03c6b" d="M490.67,181.68c-1.66-1.83-3.38-3.72-4.85-5.71l-.83-1.1a1,1,0,0,0-1.58,1.23l.8,1.06c1.53,2.07,3.29,4,5,5.87l1.55,1.72.5.55a1,1,0,0,0,1.47-1.36l-.47-.52Z"/><path class="da8badf2-12f9-4e6c-8078-a81b2ea03c6b" d="M442.79,154.65A87.13,87.13,0,0,1,454.41,157a1,1,0,0,0,.54-1.93,89,89,0,0,0-11.88-2.43,1,1,0,0,0-1.13.85A1,1,0,0,0,442.79,154.65Z"/><path class="da8badf2-12f9-4e6c-8078-a81b2ea03c6b" d="M502.14,190.27a1,1,0,1,0-.61,1.9,19.14,19.14,0,0,0,5.84.91,21.75,21.75,0,0,0,6.57-1.06,1,1,0,0,0-.61-1.91A18.17,18.17,0,0,1,502.14,190.27Z"/><path class="da8badf2-12f9-4e6c-8078-a81b2ea03c6b" d="M536.16,166.64a1,1,0,0,0,1,.91h.09a1,1,0,0,0,.9-1.09,21.3,21.3,0,0,0-3.92-9.87q-.51-.74-1-1.47a1,1,0,0,0-1.61,1.19q.51.7,1,1.41A19.35,19.35,0,0,1,536.16,166.64Z"/><path class="da8badf2-12f9-4e6c-8078-a81b2ea03c6b" d="M447.71,96.62a1,1,0,0,0,.28-2c-2.89-.83-5.78-1.76-8.59-2.75-.87-.3-1.75-.66-2.63-1.06a1,1,0,0,0-.82,1.82c.93.42,1.87.8,2.79,1.12,2.85,1,5.78,1.94,8.7,2.78A1,1,0,0,0,447.71,96.62Z"/><path class="da8badf2-12f9-4e6c-8078-a81b2ea03c6b" d="M409.28,69.4a1,1,0,0,0,.73-1.69l-.69-.73c-2.48-2.62-5-5.33-7.6-8a1,1,0,0,0-1.43,1.4c2.55,2.62,5.11,5.32,7.58,7.94l.69.73A1,1,0,0,0,409.28,69.4Z"/><path class="da8badf2-12f9-4e6c-8078-a81b2ea03c6b" d="M348.14,107.19h0a1,1,0,0,0-1,1,41.39,41.39,0,0,0,2,12.09,1,1,0,0,0,1,.69,1,1,0,0,0,.31,0,1,1,0,0,0,.64-1.26,39.43,39.43,0,0,1-1.89-11.5A1,1,0,0,0,348.14,107.19Z"/><path class="da8badf2-12f9-4e6c-8078-a81b2ea03c6b" d="M502,118.6a1,1,0,0,0-1.55,1.27c2.28,2.79,4.75,5.71,7.75,9.19a1,1,0,0,0,1.52-1.31C506.68,124.28,504.23,121.37,502,118.6Z"/><path class="da8badf2-12f9-4e6c-8078-a81b2ea03c6b" d="M350.61,83.35a1,1,0,0,0-1.16.8c-.71,3.85-1.26,7.87-1.66,12a1,1,0,0,0,.9,1.09h.1a1,1,0,0,0,1-.9c.39-4,.94-8,1.63-11.8A1,1,0,0,0,350.61,83.35Z"/><path class="da8badf2-12f9-4e6c-8078-a81b2ea03c6b" d="M389.39,106.54a8.22,8.22,0,0,0,.83,0,4.72,4.72,0,0,0,3.15-1,5.35,5.35,0,0,0,1.66-3.91c.39-6.1-3.09-10.6-9.32-12a1,1,0,0,0-.48,0,1,1,0,0,0-.65.05c-4.94,2.13-4,6.25-3.24,9.27.07.29.14.58.2.86C382.43,103.72,385.22,106.12,389.39,106.54Zm-6.09-8.07c-.8-3.37-1.14-5.52,2-6.91h0c5.27,1.22,8.1,4.85,7.77,10a3.49,3.49,0,0,1-1,2.51,3.26,3.26,0,0,1-2.49.51c-3.3-.33-5.4-2.13-6.09-5.19C383.44,99.07,383.37,98.77,383.3,98.48Z"/><path class="da8badf2-12f9-4e6c-8078-a81b2ea03c6b" d="M470,5.07a7.14,7.14,0,0,1-2.76,6,7,7,0,0,1-6.41.59C456.89,10.3,453.16,5.72,453,2c0-.75-.06-1.42-.08-2h-2c0,.66,0,1.36.07,2.14.22,4.55,4.42,9.77,9.17,11.4a10.77,10.77,0,0,0,3.49.61,8.11,8.11,0,0,0,4.73-1.45A9.08,9.08,0,0,0,472,5.1a22.86,22.86,0,0,0-.47-5.1h-2A20.45,20.45,0,0,1,470,5.07Z"/><path class="da8badf2-12f9-4e6c-8078-a81b2ea03c6b" d="M70.09,129.09a1,1,0,0,0-.36,0,1,1,0,0,0-.67.06c-4.17,1.94-7,4.59-8.09,7.67a10.38,10.38,0,0,0,.61,8.16,7.81,7.81,0,0,0,5.38,4.5,6.88,6.88,0,0,0,1.43.15,7.16,7.16,0,0,0,4.73-1.85c3.47-3,4.93-6.51,4.33-10.37C76.94,134.14,75.62,129.68,70.09,129.09ZM71.8,146.3a5.07,5.07,0,0,1-4.43,1.25,5.83,5.83,0,0,1-4-3.39,8.45,8.45,0,0,1-.54-6.63c.92-2.53,3.31-4.77,6.91-6.47l.12,0c3.3.35,4.92,2.28,5.59,6.66C76,140.92,74.76,143.72,71.8,146.3Z"/><path class="da8badf2-12f9-4e6c-8078-a81b2ea03c6b" d="M47.48,8.76c-.86,7.83-5.24,14.74-11.42,18C23.82,33.32,12,36,0,34.88v2c1.67.14,3.34.23,5,.23,10.61,0,21.33-2.86,32-8.55C43.76,25,48.54,17.45,49.47,9a26.22,26.22,0,0,0-.54-9H46.86A24.15,24.15,0,0,1,47.48,8.76Z"/><path class="da8badf2-12f9-4e6c-8078-a81b2ea03c6b" d="M68.24,11.51c-1,9-2.51,19.53-6.22,29.73C57.78,52.91,50.4,58.75,39.46,59.09c-3.15.1-6.3.23-9.45.36C23.12,59.74,16,60,9,60c-3.29,0-6.26-.18-9-.44v2c2.75.26,5.71.41,9,.43h1.81c6.45,0,13-.27,19.3-.53,3.14-.13,6.29-.26,9.43-.36,11.85-.37,19.83-6.64,24.38-19.17,3.78-10.4,5.32-21.1,6.33-30.19A60.87,60.87,0,0,0,70.44,0h-2A58.71,58.71,0,0,1,68.24,11.51Z"/><path class="da8badf2-12f9-4e6c-8078-a81b2ea03c6b" d="M301.48,269.27a14.23,14.23,0,0,0,2.68-.27l.79-.15c3.31-.63,6.73-1.28,9.5-3.05,8.3-5.32,16.74-11.2,25.08-17.5,2.08-1.57,4-3.27,3.6-5.08-.29-1.49-1.86-2.49-5.42-3.45a82.36,82.36,0,0,0-12.24-2c-1.76-.2-3.57-.41-5.34-.66a4.81,4.81,0,0,1-.83,0l-3.3.64c-2.35.46-4.79.93-7.19,1.35a23.84,23.84,0,0,0-15.06,9.43,14.31,14.31,0,0,0-2,14.38A10.13,10.13,0,0,0,301.48,269.27Zm-6.14-19.52a21.9,21.9,0,0,1,13.82-8.68c2.42-.42,4.87-.89,7.23-1.35l3.29-.64h.06l.11,0c1.79.26,3.63.46,5.4.66a80.83,80.83,0,0,1,11.94,2c3.54,1,3.94,1.7,4,1.9s-.05,1-2.84,3.1c-8.3,6.26-16.7,12.12-25,17.41-2.44,1.56-5.67,2.18-8.79,2.77l-.79.15c-4.74.91-8.56-.92-10.21-4.9A12.33,12.33,0,0,1,295.34,249.75Z"/><path class="da8badf2-12f9-4e6c-8078-a81b2ea03c6b" d="M191.47,29.77a11.59,11.59,0,0,0,7.2,2.45c3.7,0,7.39-1.57,10.76-3.22,12.71-6.19,21.28-15.93,25.63-29h-2.11c-4.25,12.24-12.41,21.37-24.39,27.21-5.28,2.58-10.86,4.77-15.88,1A47.21,47.21,0,0,1,174.86,0h-2A49.2,49.2,0,0,0,191.47,29.77Z"/><path class="da8badf2-12f9-4e6c-8078-a81b2ea03c6b" d="M88.15,0h-2q-.1,4-.42,8c-.77,9.49-1.27,20.69.84,31.78,1.55,8.13,5,15.9,11,24.45a124.49,124.49,0,0,1,9.92,16.85A66.08,66.08,0,0,1,113,121.92c-.84,4.88-1.57,9.85-2.27,14.66-1.12,7.66-2.27,15.59-3.92,23.26-2.51,11.67-9,20-19.28,24.87a80.28,80.28,0,0,1-34.87,7.52h-.22c-7.95,0-12.83-3.12-14.91-9.5-3.14-9.6-6.7-20.47-8.3-31.33-1.1-7.44-.52-15.32,0-22.95q.14-1.9.27-3.79c.49-7.2.51-15.74-3-24.5-4.6-11.33-14.22-16.07-23.69-20C1.91,79.82,1,79.46,0,79.09v2.15c.7.27,1.4.54,2.09.82,9.07,3.72,18.29,8.25,22.6,18.86,3.4,8.38,3.38,16.64,2.9,23.61q-.13,1.88-.27,3.78c-.57,7.73-1.15,15.72,0,23.38,1.63,11,5.21,22,8.38,31.66,2.35,7.2,8,10.86,16.81,10.88h.22a82.24,82.24,0,0,0,35.72-7.71c10.88-5.11,17.74-13.94,20.38-26.26,1.66-7.73,2.82-15.69,3.94-23.39.7-4.8,1.42-9.76,2.26-14.61a68,68,0,0,0-5.7-42.07A126.41,126.41,0,0,0,99.23,63.07c-5.8-8.31-9.2-15.84-10.69-23.68C86.47,28.54,87,17.51,87.72,8.15Q88.05,4.08,88.15,0Z"/><path class="da8badf2-12f9-4e6c-8078-a81b2ea03c6b" d="M119.14,412.71a36.31,36.31,0,0,0,16.7,4.56A25.64,25.64,0,0,0,152.67,411c3.95-3.31,7-7.89,9.43-11.93,2.14-3.52,4-7.25,5.77-10.86,1.09-2.2,2.22-4.48,3.39-6.66,5.76-10.72,15.19-16.75,30.57-19.55a148.58,148.58,0,0,0,19.24-4.61c9.87-3.21,15.65-14.61,16.08-23.7,1-21.75-11.69-29.67-24.8-35.92-12.61-6-26.7-8.85-44.35-8.94a168.65,168.65,0,0,1-22-2.08c-4.18-.58-8.5-1.18-12.78-1.59a82.45,82.45,0,0,0-9.84-.15c-1.45,0-2.89.07-4.34.07l-.25,0a2,2,0,0,0-.66,0c-19.29,4-35.2,15.74-48.63,35.94-11.75,17.68-11.55,34.38.63,51.05C81.83,388.2,98.33,401.86,119.14,412.71ZM72.78,323.28c12.79-19.23,27.83-30.42,46-34.21H119c1.48,0,3,0,4.44-.07a78.09,78.09,0,0,1,9.37.14c4.19.4,8.47,1,12.61,1.57A171.63,171.63,0,0,0,168,292.83c17,.08,30.59,2.8,42.65,8.55,12.39,5.91,23.43,12.81,22.52,32.12-.37,7.86-5.45,17.52-13.32,20.08a145,145,0,0,1-18.72,4.47c-16.47,3-27.07,9.85-33.38,21.59-1.2,2.24-2.35,4.55-3.45,6.78-1.75,3.53-3.56,7.18-5.61,10.56-2.28,3.76-5.08,8-8.58,10.94-8,6.71-17.8,7.12-29.1,1.23-20.26-10.56-36.3-23.81-47.68-39.4C62.09,354.39,61.92,339.62,72.78,323.28Z"/><path class="da8badf2-12f9-4e6c-8078-a81b2ea03c6b" d="M502.05,1.65c.17,2.6.58,5.21,1,7.74s.75,4.85.93,7.27c1.15,15.89-4.27,23.71-17.59,25.36a102.54,102.54,0,0,1-18.79.9,50.11,50.11,0,0,1-15.63-3.4C440.19,34.7,432.22,25.35,425.35,16a61.3,61.3,0,0,1-8.57-16h-2.12a62.86,62.86,0,0,0,9.08,17.14c7,9.63,15.24,19.23,27.43,24.23a52.12,52.12,0,0,0,16.27,3.55c1.52.1,3,.14,4.54.14a119.46,119.46,0,0,0,14.63-1c18.95-2.35,20.11-16.81,19.33-27.49-.18-2.5-.57-5-.94-7.43s-.78-5-.95-7.57c0-.5,0-1-.08-1.52h-2C502,.55,502,1.1,502.05,1.65Z"/><path class="da8badf2-12f9-4e6c-8078-a81b2ea03c6b" d="M98.87,368.82A29.09,29.09,0,0,0,115.42,376q.6,0,1.2,0a14.52,14.52,0,0,0,12.1-6.43c8.17-12,14.2-21.43,19.53-30.55,2.55-4.37,3.36-7.8,2.55-10.81s-3.41-5.78-8.3-8.54-10.06-2.77-14.55-2.59l-.21,0a1,1,0,0,0-.57,0,59.6,59.6,0,0,0-33,26.46C88.67,352.81,92.49,363.47,98.87,368.82Zm-3-24.2a57.64,57.64,0,0,1,31.86-25.56,1,1,0,0,0,.29,0c4.22-.17,9.08-.14,13.49,2.34s6.66,4.76,7.35,7.32-.08,5.41-2.34,9.28c-5.31,9.08-11.31,18.47-19.46,30.44A12.54,12.54,0,0,1,115.58,374a27.13,27.13,0,0,1-15.42-6.68C95.57,363.44,90.36,353.89,95.88,344.62Z"/><path class="da8badf2-12f9-4e6c-8078-a81b2ea03c6b" d="M1017.8,312.26V307a42.34,42.34,0,0,1-9.08-10.95c-4.85-8.75-5.65-14.52,4-19.92a55.91,55.91,0,0,0,5.07-3.24v-5a58.14,58.14,0,0,1-7,4.72c-13.16,7.35-10.45,16.53-5.55,25.35C1008.4,303.71,1012.83,308.21,1017.8,312.26Z"/><path class="da8badf2-12f9-4e6c-8078-a81b2ea03c6b" d="M49.5,370.17c-6.71-7.13-12.06-16.32-15.93-27.31-4.66-13.25-14.45-21.55-23.41-27.91A117.06,117.06,0,0,1,0,307.07v5.25c2.51,2,5.15,4,7.84,5.88,8.88,6.3,17.68,13.81,22,26,4,11.52,9.7,21.19,16.79,28.73s14.6,15.35,22.64,22.58c10.89,9.79,21.06,18.33,31.11,26.09,11.77,9.09,23.64,13.53,36.22,13.53q1,0,2,0c17.16-.64,31.12-7.44,41.49-20.21,2.59-3.19,5.35-6.44,8.44-9.94,6.88-7.78,16.12-12.35,28.24-14a110.69,110.69,0,0,0,22.87-5.13c13.7-4.91,22.31-15.8,26.32-33.28.21-.9.42-1.8.63-2.69.69-2.91,1.41-5.92,1.86-9,2-13.59,10-22,25.11-26.39,15.35-4.49,27.46-9.95,38.11-17.19l1.07-.72c6.81-4.63,13.84-9.42,21.23-13,6.54-3.19,13.45-6,20.14-8.68,4.34-1.75,8.83-3.56,13.19-5.48,16.67-7.3,28.06-16.1,35.87-27.68q2.2-3.26,4.41-6.5c4-5.89,8.15-12,12-18.1a22.18,22.18,0,0,0,3.28-9.33,16.08,16.08,0,0,0-5.87-14.5c-4.59-3.64-11-4.58-17.12-2.5-3.4,1.15-6.69,2.64-9.88,4.09-2.52,1.14-5.13,2.33-7.73,3.3-8.89,3.35-18.46,4.37-30.11,3.22a168.55,168.55,0,0,1-19.89-3.61,184.22,184.22,0,0,0-18.57-3.47,199,199,0,0,0-21-1c-4.3,0-8.74-.09-13.08-.32-6.91-.36-15.75-1.58-22.82-7.88-5-4.46-8.14-10.48-10.19-19.53-2.54-11.19-2.33-21.16.62-30.48,2.23-7,7.9-10.1,15.95-8.67a81.58,81.58,0,0,0,17.91,1.49c9.44-.42,16.4-5.83,21.26-16.52a122.17,122.17,0,0,0,9.81-36.07c.18-1.46.35-2.93.51-4.4,1-9,2-17.54,6.45-25.45a58.28,58.28,0,0,1,19-20.7c8-5.28,16.37-5.25,24.74.07A103.07,103.07,0,0,1,398,36.63c5.17,4.85,10.26,10,15.18,15,3.38,3.42,6.88,7,10.39,10.39,10.12,9.89,22.3,15.2,37.23,16.24a231.77,231.77,0,0,1,31.7,4.46c11.17,2.36,20.32,9.24,27.22,20.46,5.79,9.42,12.9,20,24.1,27.09,1.82,1.32,33.23,23.45,66,4.07,11.61-6,16.15-15.52,13.89-29C622,95.1,613.47,87,601.42,84.14c-21-7-25.76-16.91-39-81q-.33-1.61-.6-3.18h-4c.21,1.31.45,2.64.73,4,12.79,62,17.79,76,41.72,84l.17,0c10.5,2.47,17.91,9.34,19.35,17.93,2,11.76-1.79,19.66-11.83,24.84l-.1.06c-31.23,18.54-61.34-3.62-61.64-3.85l-.14-.1c-10.5-6.59-17.32-16.79-22.88-25.84-7.49-12.19-17.52-19.68-29.8-22.28a235.76,235.76,0,0,0-32.25-4.54c-13.94-1-25.29-5.91-34.71-15.11-3.48-3.4-7-6.93-10.34-10.34-4.94-5-10.06-10.18-15.29-15.08A107.07,107.07,0,0,0,385,21.5c-9.68-6.15-19.73-6.17-29.08,0a62.19,62.19,0,0,0-20.29,22.08c-4.87,8.61-5.92,17.95-6.94,27-.17,1.46-.33,2.91-.51,4.36a118.3,118.3,0,0,1-9.48,34.91c-4.24,9.32-9.9,13.83-17.8,14.18a77.65,77.65,0,0,1-17-1.43c-10.13-1.79-17.59,2.37-20.46,11.4-3.18,10-3.41,20.67-.71,32.57,1.51,6.68,4.18,15.17,11.43,21.63,8,7.13,17.71,8.5,25.27,8.89,4.42.23,8.91.28,13.25.32a196.2,196.2,0,0,1,20.6.93,181.18,181.18,0,0,1,18.16,3.41,171.8,171.8,0,0,0,20.37,3.68c12.29,1.22,22.43.12,31.91-3.46,2.72-1,5.39-2.23,8-3.4,3.1-1.4,6.3-2.85,9.51-3.94,4.84-1.64,9.83-1,13.35,1.84a12.15,12.15,0,0,1,4.38,11,18.05,18.05,0,0,1-2.68,7.58c-3.85,6.07-8,12.13-12,18q-2.21,3.25-4.42,6.52c-7.37,10.92-18.22,19.26-34.16,26.25-4.31,1.89-8.77,3.69-13.09,5.43-6.75,2.72-13.73,5.54-20.39,8.8-7.64,3.73-14.8,8.6-21.72,13.32l-1.06.72c-10.29,7-22,12.29-37,16.66-16.55,4.84-25.69,14.53-28,29.64-.43,2.87-1.12,5.8-1.8,8.63-.22.91-.43,1.82-.64,2.72-3.73,16.27-11.29,25.93-23.78,30.41A106.85,106.85,0,0,1,216.21,387c-13.11,1.75-23.16,6.76-30.71,15.29-3.13,3.54-5.93,6.83-8.55,10.06-9.61,11.84-22.58,18.14-38.53,18.74-12.37.46-24-3.68-35.63-12.66-10-7.7-20.07-16.17-30.88-25.89C64,385.39,56.45,377.56,49.5,370.17Z"/><path class="da8badf2-12f9-4e6c-8078-a81b2ea03c6b" d="M107.2,31.88l.67,1.51c1.72,3.89,3.49,7.92,6.13,11.34,14.11,18.34,19.65,40.21,23.21,59.19,2.5,13.31,1,26.34-.75,37.34-2.19,13.59-1.83,25.48,1.11,36.34,4.13,15.29,12.37,19.32,26.13,21.39,5.34.8,10.79,1.38,16.06,1.94,7.86.83,16,1.7,23.78,3.32,17.67,3.69,28.75,14.22,32.95,31.33,3.08,12.56,1.19,22-6,29.64a11.17,11.17,0,0,1-9.37,3.83c-6.11-.48-12.33-1.12-18.34-1.73l-7.12-.72c-.51,0-1-.12-1.52-.19a23.33,23.33,0,0,0-3.17-.29c-4.23,0-8.46,0-12.69,0-6.16,0-12.53,0-18.79,0-18.09-.2-31.58-7.33-40.09-21.17-8.15-13.26-20-17.1-35.22-18.79l-1-.11c-3.32-.37-6.76-.75-10.19-.89-13.44-.53-26.32,3.83-38.22,13-5,3.84-9.75,8.1-14.34,12.22-3,2.72-6.17,5.54-9.34,8.19-1.24,1-2.48,2.1-3.71,3.17C5,263.77,2.56,265.9,0,267.87v5c3.53-2.51,6.84-5.35,10.07-8.13,1.22-1.05,2.44-2.1,3.67-3.13,3.21-2.69,6.38-5.53,9.44-8.28,4.54-4.07,9.23-8.28,14.11-12,10.54-8.1,21.83-12.2,33.6-12.2q1,0,2,0c3.28.13,6.65.5,9.9.87l1,.11c19.46,2.15,27,8.31,32.25,16.91,9.14,14.88,24.17,22.86,43.45,23.07,6.29.07,12.67.06,18.85,0,4.22,0,8.44,0,12.67,0a20.26,20.26,0,0,1,2.64.25c.56.08,1.12.16,1.68.21l7.1.72c6,.62,12.28,1.25,18.44,1.74a15.21,15.21,0,0,0,12.61-5.09c8-8.62,10.31-19.52,6.92-33.32-4.53-18.46-17-30.32-36-34.29-8-1.67-16.21-2.54-24.17-3.38-5.23-.55-10.63-1.13-15.89-1.92-14.28-2.15-19.62-6.47-22.87-18.48-2.78-10.3-3.12-21.64-1-34.67,1.82-11.33,3.34-24.8.73-38.71-3.65-19.44-9.34-41.88-24-60.89-2.34-3-4-6.84-5.63-10.52l-.67-1.52c-4.22-9.48-3.41-19.47-1.9-28.85.08-.47.16-.94.25-1.41h-4.06c0,.26-.09.51-.13.77C103.4,10.76,102.55,21.45,107.2,31.88Z"/><path class="da8badf2-12f9-4e6c-8078-a81b2ea03c6b" d="M974,362.79c-4.14-3.38-9.22-5.51-16-6.68a1,1,0,0,0-.42,0,1,1,0,0,0-.4,0c-8.84,1.33-14.82,5.44-18.26,12.55s-3.23,14,.67,19.93c2.63,4,6.61,6,12.08,6a30.75,30.75,0,0,0,6.31-.73c9.21-1.95,15.52-6.1,19.27-12.69C981.26,374.12,980.13,367.78,974,362.79Zm1.53,17.34c-3.45,6.07-9.32,9.9-17.95,11.72-8,1.7-13.22.31-16.31-4.37-3.54-5.36-3.72-11.4-.54-18s8.62-10.21,16.76-11.44l.1,0,.08,0c6.41,1.12,11.2,3.11,15.06,6.26C978.16,368.76,979.08,373.92,975.55,380.12Z"/><path class="da8badf2-12f9-4e6c-8078-a81b2ea03c6b" d="M1000.92,490.32a139.06,139.06,0,0,0,16.88,8.21v-2.18a132.13,132.13,0,0,1-15.85-7.74c-7.76-4.66-12.56-10.48-14.68-17.78a8.53,8.53,0,0,1,.65-6.57,5.64,5.64,0,0,1,3.67-2.71,21.73,21.73,0,0,0,2.54-.81c.69-.25,1.34-.49,2-.66,1.87-.49,3.8-.92,5.66-1.34,5.21-1.17,10.59-2.37,15.64-5.11l.38-.22v-2.3c-.44.26-.88.52-1.33.76-4.81,2.6-9.82,3.73-15.13,4.92-1.88.42-3.82.86-5.73,1.36-.75.2-1.47.46-2.18.72a19.7,19.7,0,0,1-2.3.74,7.6,7.6,0,0,0-4.94,3.65,10.56,10.56,0,0,0-.84,8.14C987.62,479.19,992.71,485.39,1000.92,490.32Z"/><path class="da8badf2-12f9-4e6c-8078-a81b2ea03c6b" d="M713.33,10.14c.54,0,1.08,0,1.62,0,6.73,0,13.24-1.48,19.55-2.91,2.63-.6,5.36-1.21,8-1.71l4.37-.79c6-1.08,12.2-2.19,18.19-3.8A30.81,30.81,0,0,0,768,0h-7.4C756,1.09,751.2,2,746.55,2.79l-4.37.79c-2.73.5-5.47,1.13-8.12,1.73-6.69,1.52-13.59,3.08-20.66,2.83a15,15,0,0,1-12.33-6.57C700.68,1,700.32.53,700,0h-2.33a25.91,25.91,0,0,0,1.8,2.76C703.12,7.65,707.4,9.92,713.33,10.14Z"/><path class="da8badf2-12f9-4e6c-8078-a81b2ea03c6b" d="M696.39,536.8c1.6-7.75-.81-14.94-7-20.79-9.64-9.13-20.92-13.82-33.54-13.92a.79.79,0,0,0-.26,0,1,1,0,0,0-.42,0c-12.46,2.1-23.42,8.43-33.51,19.36-9.88,10.7-14.24,20.76-13.73,31.67.68,14.38,9.38,23.08,23.85,23.88,2.5.14,5.13.24,7.83.24a67.54,67.54,0,0,0,23.57-3.72C681.85,566.65,692.7,554.64,696.39,536.8ZM631.92,575c-13.33-.74-21.34-8.75-22-22-.49-10.33,3.7-19.93,13.2-30.22,9.78-10.59,20.37-16.73,32.38-18.75l.08,0,.24,0c12.09.1,22.92,4.6,32.18,13.38,3.93,3.73,8.23,10,6.39,18.93-3.54,17.11-14,28.64-31.91,35.26C652.05,575.52,641.18,575.52,631.92,575Z"/><path class="da8badf2-12f9-4e6c-8078-a81b2ea03c6b" d="M916.52,120.33q-.07,1.34-.13,2.69-.21,4.66-.37,9.33a1.5,1.5,0,0,0,1.45,1.55h.05a1.5,1.5,0,0,0,1.5-1.45q.17-4.65.37-9.31.06-1.32.13-2.65a1.5,1.5,0,0,0-1.41-1.58A1.53,1.53,0,0,0,916.52,120.33Z"/><path class="da8badf2-12f9-4e6c-8078-a81b2ea03c6b" d="M982.24,219.36c-2.47,2.73-5.15,5.58-8.19,8.7a1.5,1.5,0,1,0,2.15,2.09c3.07-3.15,5.77-6,8.26-8.78a1.5,1.5,0,0,0-2.22-2Z"/><path class="da8badf2-12f9-4e6c-8078-a81b2ea03c6b" d="M918.95,110a1.5,1.5,0,0,0,1.49-1.34,35.5,35.5,0,0,1,2.84-11.1,1.5,1.5,0,0,0-2.72-1.26,38.44,38.44,0,0,0-3.1,12,1.5,1.5,0,0,0,1.33,1.65Z"/><path class="da8badf2-12f9-4e6c-8078-a81b2ea03c6b" d="M965.5,236.08a24.4,24.4,0,0,1-10.27,4.47,1.5,1.5,0,0,0,.25,3l.25,0a27.38,27.38,0,0,0,11.54-5,1.5,1.5,0,1,0-1.76-2.43Z"/><path class="da8badf2-12f9-4e6c-8078-a81b2ea03c6b" d="M915.15,156.32a1.5,1.5,0,0,0,1.43,1.56h.07a1.5,1.5,0,0,0,1.5-1.43c.18-4,.33-8,.46-12a1.5,1.5,0,0,0-3-.1C915.47,148.34,915.33,152.33,915.15,156.32Z"/><path class="da8badf2-12f9-4e6c-8078-a81b2ea03c6b" d="M917.13,205.74l.28,0a1.5,1.5,0,0,0,1.2-1.75,105.34,105.34,0,0,1-1.49-11.73,1.5,1.5,0,0,0-3,.21,108.29,108.29,0,0,0,1.53,12.07A1.5,1.5,0,0,0,917.13,205.74Z"/><path class="da8badf2-12f9-4e6c-8078-a81b2ea03c6b" d="M914.51,168.28q-.12,1.85-.26,3.69c-.21,2.85-.34,5.66-.4,8.35a1.5,1.5,0,0,0,1.47,1.53h0a1.5,1.5,0,0,0,1.5-1.47c.06-2.64.19-5.4.4-8.2q.14-1.86.26-3.72a1.5,1.5,0,0,0-1.4-1.59A1.54,1.54,0,0,0,914.51,168.28Z"/><path class="da8badf2-12f9-4e6c-8078-a81b2ea03c6b" d="M933.91,234.42a1.5,1.5,0,1,0-1.82,2.39,35.68,35.68,0,0,0,11.1,5.65,1.5,1.5,0,0,0,.89-2.87A32.66,32.66,0,0,1,933.91,234.42Z"/><path class="da8badf2-12f9-4e6c-8078-a81b2ea03c6b" d="M991.38,103.55A1.5,1.5,0,1,0,993,101c-3.25-2-6.75-4.14-10.34-6.19a1.5,1.5,0,0,0-1.49,2.61C984.67,99.43,988.15,101.56,991.38,103.55Z"/><path class="da8badf2-12f9-4e6c-8078-a81b2ea03c6b" d="M990.22,212.43a1.5,1.5,0,0,0,2.11-.23c2.63-3.26,5.06-6.52,7.25-9.7a1.5,1.5,0,0,0-2.47-1.7c-2.14,3.12-4.54,6.32-7.11,9.52A1.5,1.5,0,0,0,990.22,212.43Z"/><path class="da8badf2-12f9-4e6c-8078-a81b2ea03c6b" d="M940.79,84.59c1.07.05,2.14.07,3.21.08,1.43,0,2.92,0,4.33.16a1.5,1.5,0,0,0,.26-3c-1.52-.13-3.06-.15-4.54-.17-1,0-2.07,0-3.1-.08a1.47,1.47,0,0,0-.32,0,1.5,1.5,0,0,0-.55,0,29.78,29.78,0,0,0-11.56,4.84,1.5,1.5,0,1,0,1.76,2.43,26.78,26.78,0,0,1,10.36-4.32Z"/><path class="da8badf2-12f9-4e6c-8078-a81b2ea03c6b" d="M1007.41,132.43c.31,3.43.55,7.21.74,11.9a1.5,1.5,0,0,0,1.5,1.44h.06a1.5,1.5,0,0,0,1.44-1.56c-.19-4.74-.43-8.57-.75-12.05a1.5,1.5,0,0,0-3,.27Z"/><path class="da8badf2-12f9-4e6c-8078-a81b2ea03c6b" d="M1004,192.78a1.5,1.5,0,0,0,2-.64,46.16,46.16,0,0,0,4.15-11.65,1.5,1.5,0,1,0-2.93-.63,43.2,43.2,0,0,1-3.88,10.89A1.5,1.5,0,0,0,1004,192.78Z"/><path class="da8badf2-12f9-4e6c-8078-a81b2ea03c6b" d="M970.61,91.88a1.5,1.5,0,1,0,1.28-2.71,97.62,97.62,0,0,0-11.3-4.54,1.5,1.5,0,1,0-.93,2.85A94.56,94.56,0,0,1,970.61,91.88Z"/><path class="da8badf2-12f9-4e6c-8078-a81b2ea03c6b" d="M1011.38,168.3c.07-2.95.11-5.91.11-8.81q0-1.62,0-3.25a1.5,1.5,0,0,0-1.5-1.49h0a1.5,1.5,0,0,0-1.49,1.51q0,1.61,0,3.22c0,2.87,0,5.81-.11,8.73a1.5,1.5,0,0,0,1.46,1.54h0A1.5,1.5,0,0,0,1011.38,168.3Z"/><path class="da8badf2-12f9-4e6c-8078-a81b2ea03c6b" d="M919.57,219.05a43.13,43.13,0,0,0,4.13,8.54,1.5,1.5,0,1,0,2.53-1.61,40.11,40.11,0,0,1-3.84-7.94q-.47-1.31-.9-2.63a1.5,1.5,0,1,0-2.86.92Q919.08,217.7,919.57,219.05Z"/><path class="da8badf2-12f9-4e6c-8078-a81b2ea03c6b" d="M1005.5,120.94a1.5,1.5,0,1,0,2.86-.91,33,33,0,0,0-5.93-11,1.5,1.5,0,1,0-2.32,1.9A30.06,30.06,0,0,1,1005.5,120.94Z"/><path class="da8badf2-12f9-4e6c-8078-a81b2ea03c6b" d="M888.75,211.13c-1.79,3.2-3.55,6.41-5.32,9.61l-2.7,4.9c-6.66,12.06-4.9,21.35,6.1,32,7.88,7.66,17.72,10.54,28.82,13.27l6.49,1.62c9.54,2.4,19.41,4.89,29.34,6.24a105.43,105.43,0,0,0,14.17.93,123.22,123.22,0,0,0,15-.94c10.39-1.28,12-7.15,13.13-15.3.23-1.69.41-3.4.58-5,.26-2.54.51-4.94,1-7.3,1.86-9.85,6.59-19.16,15.35-30.2,2.5-3.15,4.89-6.22,7.09-9.31v-11A138.87,138.87,0,0,1,1006,217.22c-6.33,8-13.93,18.91-16.55,32.82-.49,2.62-.76,5.25-1,7.8-.16,1.6-.33,3.25-.55,4.83-1.12,8-2.22,9.47-7.91,10.17a108.29,108.29,0,0,1-27.66,0c-9.6-1.3-19.3-3.75-28.68-6.11l-6.52-1.63C906.86,262.6,897.83,260,891,253.37c-9-8.75-10.32-15.25-5-24.83l2.7-4.91q2.64-4.79,5.29-9.58c8.11-14.5,9.64-30.22,10.69-47.8.54-9,0-18.11-.62-26.93q-.14-2.21-.28-4.42c-.32-5.29-1-10.59-1.69-15.72-.26-2-.52-4-.76-6-.39-3.24-.8-6.48-1.22-9.71-.79-6.14-1.6-12.49-2.22-18.73-.84-8.5,4.56-12.74,9.24-14.81a71.11,71.11,0,0,1,11.51-3.56c1.68-.42,3.41-.85,5.12-1.33,1.81.15,3.63.26,5.39.36a84.28,84.28,0,0,1,11.6,1.19C952.25,68.92,962.55,74,972,79.16c5.1,2.79,10.35,5.46,15.43,8,6.93,3.52,14.1,7.16,20.88,11.13a30,30,0,0,1,9.54,8.4V97.81a41.49,41.49,0,0,0-6.51-4.66c-6.93-4.05-14.18-7.74-21.19-11.3-5-2.56-10.25-5.21-15.26-8-9.36-5.13-20.59-10.7-32.91-13.14a90.15,90.15,0,0,0-12.42-1.3c-1.78-.1-3.61-.21-5.39-.36a3.22,3.22,0,0,0-.5,0,3,3,0,0,0-1.08.11c-1.75.5-3.58,1-5.34,1.4a76.7,76.7,0,0,0-12.48,3.89C895.54,68.54,891,76,891.93,85.38c.63,6.33,1.45,12.72,2.24,18.9.41,3.22.83,6.44,1.21,9.67.24,2,.5,4,.77,6,.66,5,1.34,10.23,1.65,15.31q.13,2.22.28,4.44c.56,8.64,1.13,17.57.62,26.19C897.68,182.72,896.24,197.74,888.75,211.13Z"/><path class="da8badf2-12f9-4e6c-8078-a81b2ea03c6b" d="M989.75,134c-2.33-15.94-16.6-24.33-29.18-26.86a23.79,23.79,0,0,1-2.29-.63l-1.13-.34a1,1,0,0,0-.52,0,1.07,1.07,0,0,0-.35,0c-13.11,1.35-17.08,11-19.41,21.27-3.47,15.27-7.41,32.58-6.91,50.25.3,10.54,2.81,18.88,7.66,25.53,4.29,5.87,9.16,9.23,14.47,10a16.45,16.45,0,0,0,2.3.16c4.77,0,9.8-2,15-6.05,15.14-11.75,22.89-28.06,22.43-47.16A216.78,216.78,0,0,0,989.75,134Zm-21.62,71.69c-5.58,4.33-10.89,6.18-15.78,5.49s-9.17-3.76-13.13-9.17c-4.61-6.3-7-14.29-7.28-24.4-.5-17.42,3.41-34.6,6.86-49.75,2.5-11,6.46-18.57,17.66-19.72l.15,0,1.07.32a25.48,25.48,0,0,0,2.49.68c11.91,2.4,25.42,10.28,27.6,25.19a214.84,214.84,0,0,1,2,25.87C990.24,178.82,983,194.14,968.13,205.64Z"/><path class="da8badf2-12f9-4e6c-8078-a81b2ea03c6b" d="M826.81,200.51c11.77-5.75,20.41-13.24,26.4-22.89,7.11-11.45,6.28-21.49-2.69-32.55-7.38-9.1-17.83-14.94-32-17.86a58.05,58.05,0,0,0-9.4-.89c-1.39-.06-2.82-.11-4.21-.22a.91.91,0,0,0-.32,0,1,1,0,0,0-.42,0c-10.34,1.76-17.14,8.26-19.64,18.79-1.58,6.63-2.9,14.48-.79,22.48a39.75,39.75,0,0,1,1,7.69,51.26,51.26,0,0,0,.71,6.7c1.85,9.4,6.62,16.26,13.81,19.83a26.79,26.79,0,0,0,11.95,2.66A35.81,35.81,0,0,0,826.81,200.51Zm-26.67-.69c-6.61-3.29-11-9.66-12.74-18.43a49.81,49.81,0,0,1-.68-6.44,41.9,41.9,0,0,0-1-8.08c-2-7.57-.71-15.12.81-21.51,2.3-9.69,8.54-15.67,18-17.28l.08,0,.18,0c1.43.11,2.88.16,4.28.22a56.49,56.49,0,0,1,9.07.85c13.66,2.82,23.74,8.44,30.82,17.16,8.46,10.43,9.23,19.48,2.55,30.24-5.79,9.33-14.15,16.57-25.58,22.15C817.09,203,807.45,203.44,800.15,199.81Z"/><path class="da8badf2-12f9-4e6c-8078-a81b2ea03c6b" d="M1011.2,35.94a59.54,59.54,0,0,0,6.61.94v-2a59.41,59.41,0,0,1-6.21-.9c-8.47-1.7-14.39-5.76-16.68-11.43-2.22-5.49-.89-12.2,3.75-18.91.88-1.27,1.78-2.47,2.69-3.63h-2.54c-.61.81-1.21,1.64-1.8,2.5-5,7.28-6.43,14.67-4,20.8C995.61,29.61,1002,34.1,1011.2,35.94Z"/><path class="da8badf2-12f9-4e6c-8078-a81b2ea03c6b" d="M1008.15,59.92a62.92,62.92,0,0,0,9.65,1.61v-2a60.7,60.7,0,0,1-9.15-1.54c-19.16-4.89-32.88-13.71-41.95-27-4.53-6.63-5.33-13.71-2.31-20.47A92.12,92.12,0,0,1,969.93,0h-2.32a94.79,94.79,0,0,0-5,9.73c-3.27,7.33-2.39,15.29,2.49,22.42C974.4,45.82,988.5,54.91,1008.15,59.92Z"/><path class="da8badf2-12f9-4e6c-8078-a81b2ea03c6b" d="M921.93,4.31a27.79,27.79,0,0,1-2.19,2c-3.15,2.46-4.89,5.54-5,8.91-.15,3.68,1.64,7.43,5,10.57a127.21,127.21,0,0,0,14.59,11.6c21.42,14.56,39.58,25.21,57.15,33.52,5.59,2.64,11.5,4.81,17.22,6.9,3,1.1,6.07,2.24,9.09,3.44V79.06c-2.81-1.1-5.64-2.15-8.41-3.17-5.67-2.07-11.54-4.22-17-6.83C974.88,60.81,956.8,50.2,935.47,35.7a125.14,125.14,0,0,1-14.36-11.42c-3-2.73-4.53-5.93-4.4-9,.11-2.77,1.59-5.33,4.26-7.41a29.88,29.88,0,0,0,2.35-2.11A22.69,22.69,0,0,1,926,3.44c1.58-1.11,3.16-2.26,4.73-3.44h-3.38c-.83.6-1.66,1.21-2.5,1.8A24.72,24.72,0,0,0,921.93,4.31Z"/><path class="da8badf2-12f9-4e6c-8078-a81b2ea03c6b" d="M1013.14,373.34c-4.5-14.19-14.54-25.33-29.85-33.1l-.92-.47a227.08,227.08,0,0,0-23.74-10.93,46.76,46.76,0,0,0-11.5-2.14c-1.69-.17-3.45-.35-5.13-.6a6.32,6.32,0,0,1-.86,0c-19.68,4.21-31.65,17.39-36.6,40.3-2.56,11.87-.24,23.89,6.89,35.73,7.23,12,15.74,20.56,26,26.18,6.11,3.34,13.14,6.52,20.75,6.52a26.24,26.24,0,0,0,6.88-.91,24.8,24.8,0,0,0,9.85-5.2c9.6-8.66,17.71-15.72,27.43-21.25C1019.39,397.78,1017.69,387.67,1013.14,373.34Zm-39.54,53.9a22.73,22.73,0,0,1-9,4.76c-9.55,2.58-18.21-1.09-26.15-5.43-10-5.45-18.22-13.78-25.26-25.46-6.86-11.39-9.1-22.92-6.65-34.27,4.76-22.06,16.23-34.75,35.06-38.77h0l.1,0c1.73.26,3.5.44,5.22.62a45.27,45.27,0,0,1,11,2,225.49,225.49,0,0,1,23.52,10.84l.92.47c14.81,7.52,24.51,18.26,28.85,31.92,4.78,15.07,5.37,23.12-9.85,31.79C991.49,411.37,983.29,418.51,973.61,427.24Z"/><path class="da8badf2-12f9-4e6c-8078-a81b2ea03c6b" d="M648.8,18.51c0,4.82-2.86,8.91-8.4,11.82-7.87,4.14-15.55,4.37-20.54.61s-6.66-10.67-4.9-19.22c.19-.91,1.74-7.81,5.89-11.72h-2.75c-3.46,4.2-4.81,9.9-5.1,11.32h0c-1.92,9.34.14,17.07,5.66,21.22a16.08,16.08,0,0,0,9.83,3.06,28,28,0,0,0,12.84-3.5c7.9-4.15,9.51-9.69,9.47-13.61C650.74,12.07,646.11,5,639.1,0h-3.69C643.32,4.59,648.74,12,648.8,18.51Z"/><path class="da8badf2-12f9-4e6c-8078-a81b2ea03c6b" d="M652.94,329c-15.71-4.42-20.43-14.5-25.89-26.16-2.62-5.6-5.33-11.4-9.45-17.07-6-8.29-16.3-11.67-30.59-10.06-12.65,1.42-25.38,6.51-31.85,9.41-16.65,7.48-5.48,37.63.53,53.82.39,1.05.75,2,1.08,2.93h0c9.33,25.62,22.87,42.61,40.25,50.49a60.91,60.91,0,0,0,25.41,5.22c18.44,0,36.14-6.87,48.24-11.57,3.9-1.51,7.27-2.82,9.89-3.61,6.4-1.93,9.9-6.43,9.84-12.69C690.28,355,671,334.09,652.94,329Zm26.47,49.55c-2.78.84-6.21,2.17-10.19,3.71-17.07,6.63-45.64,17.73-70.54,6.44-16.37-7.42-29.2-23.64-38.14-48.21-.33-.9-.69-1.89-1.09-2.95-5.15-13.9-15.88-42.83-2.64-48.78,10.27-4.61,44.77-18.3,57.56-.65,3.89,5.37,6.52,11,9.06,16.42,5.63,12,10.95,23.4,28.42,28.32,17.67,5,34.45,25,34.55,36.88C686.45,374.24,684.16,377.13,679.41,378.56Z"/><path class="da8badf2-12f9-4e6c-8078-a81b2ea03c6b" d="M595.54,328.44c-8-.72-14,.73-17.72,4.32a11.54,11.54,0,0,0-3.67,8.54c1.24,28,18.09,30.8,29.24,32.65,1.78.29,3.46.57,5,.92a15.76,15.76,0,0,0,3.54.42,11.35,11.35,0,0,0,7.92-3c5.29-4.91,6-14.33,4.93-21.5C623.37,341.64,617.18,330.38,595.54,328.44Zm20.87,40.15c-1.74,1.61-4,2.07-6.93,1.4-1.66-.38-3.41-.67-5.27-1-11.25-1.86-24-4-25.06-27.93h0a6.6,6.6,0,0,1,2.13-4.7c2.14-2,5.74-3.11,10.49-3.11q1.58,0,3.33.16c14.78,1.32,23.09,7.4,24.71,18.08C620.91,358.81,619.55,365.68,616.42,368.59Z"/><path class="da8badf2-12f9-4e6c-8078-a81b2ea03c6b" d="M562.5,506.08c4.62,0,9.12-4.09,11.21-6.31C583.9,489,588,481.65,586.87,476c-.74-3.9-3.86-7-9.8-9.78-10.94-5.11-13.75-.16-16.74,5.09a39.18,39.18,0,0,1-2.65,4.22c-5.84,7.79-7.08,22.87-.14,28.72A7.5,7.5,0,0,0,562.5,506.08Zm-3.21-29.4a40.73,40.73,0,0,0,2.79-4.43c2-3.53,3.55-6.24,7.26-6.24a17,17,0,0,1,6.89,2c5.31,2.48,8.07,5.13,8.68,8.34.94,4.92-3.08,11.94-12.64,22.06-5.29,5.6-10.05,7.11-13.42,4.27C552.83,497.61,554,483.74,559.29,476.69Z"/><path class="da8badf2-12f9-4e6c-8078-a81b2ea03c6b" d="M103.6,887.68a126.61,126.61,0,0,0-31.42-33.57c-8.63-6.47-18.41-7.22-29-2.23-2.64,1.24-5.29,2.57-7.85,3.85-6.14,3.08-12.48,6.26-19,8.32A166.79,166.79,0,0,1,0,868.18v4.08a174.4,174.4,0,0,0,17.51-4.4c6.8-2.16,13.29-5.41,19.56-8.55,2.54-1.27,5.16-2.59,7.76-3.8,9.32-4.37,17.48-3.78,24.94,1.81a122.6,122.6,0,0,1,30.44,32.5,38.93,38.93,0,0,1,4.69,31.81c-2,7.49-6,15-12,22.88s-14,11.56-24.36,11.16a238.66,238.66,0,0,0-47.38,3.18C13.9,960,6.87,960.93,0,961.57v4c7.08-.65,14.32-1.57,21.83-2.8a234.17,234.17,0,0,1,46.58-3.13c11.59.41,20.92-3.85,27.69-12.73,6.33-8.31,10.47-16.25,12.66-24.25A42.84,42.84,0,0,0,103.6,887.68Z"/><path class="da8badf2-12f9-4e6c-8078-a81b2ea03c6b" d="M391.14,1019.11c-.92-12.09,4.39-22.69,10.27-32.35C410,972.69,422,961.15,433.61,950q2.85-2.73,5.68-5.48c5.12-5,10.6-7.76,16.29-8.25,8.47-.74,17.13-1.12,25.5-1.48l1.46-.06c7.54-.33,12.68-3,15.72-8.07a68.88,68.88,0,0,0,6.58-14.23c.06-.22,6.13-21.64,23.39-29.78a33.44,33.44,0,0,1,14.43-3.15c6.56,0,13.67,1.7,21.26,5.1,10.26,5.59,16.24,15.06,18.82,29.8,1.36,7.76,1.65,13.84.91,19.14-1.46,10.47-8.19,17.11-19.47,19.18l-.12,0c-19,6-31.93,16.36-38.55,30.68-8.32,18-4.34,37.83-1.61,47.19H526c-2.65-8.8-6.89-28.56,1.35-46.35,6.37-13.77,18.92-23.73,37.29-29.59,12.17-2.26,19.45-9.48,21-20.86.77-5.5.47-11.78-.92-19.76-2.7-15.41-9-25.33-19.87-31.23l-.07,0c-14.13-6.33-26.72-7-37.41-1.94-18.1,8.54-24.21,30.14-24.44,31a66.82,66.82,0,0,1-6.39,13.77c-2.7,4.54-7.18,6.8-14.09,7.1l-1.46.06c-8.39.36-17.07.74-25.58,1.48-6.17.54-12.06,3.5-17.52,8.81q-2.82,2.75-5.67,5.47c-11.71,11.24-23.81,22.87-32.52,37.17-6.05,9.94-11.52,20.88-10.55,33.54a39.65,39.65,0,0,0,2.43,11.35h2.18A36.47,36.47,0,0,1,391.14,1019.11Z"/><path class="da8badf2-12f9-4e6c-8078-a81b2ea03c6b" d="M740.32,30.89c-26.41,16.22-49,27.62-71.14,35.88-9.05,3.38-13.17,9.48-13.36,19.78-.06,3.44-.26,6.95-.45,10.34-.21,3.82-.43,7.77-.47,11.68-.12,11.79-4.3,23.2-13.17,35.89l-.12.19c-.28.52-29.09,52.56-97.17,69-15.54,4.24-30.31,12.42-45.16,25A235.59,235.59,0,0,0,481.59,256c-1.67,1.75-3.33,3.5-5,5.23-6.14,6.33-13.47,10.49-23.07,13.1-15.15,4.12-20.36,12.83-18,30,1.73,12.49,5.76,24.43,9.47,34.46,5.07,13.71,13.77,23.4,26.58,29.63,17.12,8.32,33.56,19.28,50.26,33.48,4.56,3.88,9.95,6.75,15.16,9.54,2.27,1.21,4.62,2.47,6.85,3.78,51.09,40.23,94.84,30.43,98.33,29.56,9.81-.92,19.5.55,30.51,4.61l4.14,1.54c8.62,3.21,17.53,6.52,26.58,8.88a99.18,99.18,0,0,0,13.48,2.23,96.1,96.1,0,0,1,12.93,2.13c14,3.67,21.78,12.28,23,25.59.8,8.88-.61,18.08-4.31,28.12q-10.31,28-20.64,56l-8.85,24c0,.07,0,.14-.06.21C712,626,728.47,639,741.69,649.42c7.69,6.08,14.32,11.33,15.05,18.11.5,4.63-1.78,9.94-7,16.25-14.22,17.29-34.4,25.69-55.36,23.06a58.85,58.85,0,0,1-46-33.93c-18-38.49,30.5-71.25,32.89-72.83.49-.24,1-.46,1.58-.69a13.91,13.91,0,0,0,4.22-2.38,135.84,135.84,0,0,0,21.92-25.79c7.22-11,15.07-24.27,18.61-39.71,4.83-21.1-.36-33.58-17.92-43.08-17-9.23-31.79-15.19-46.43-18.76s-26.82-1-36.18,7.6c-4.38,4-8,8.92-11.41,13.65-.95,1.3-1.9,2.6-2.86,3.87-2.94,2.93-70.19,69.45-119.64,77l-.33.08A85.08,85.08,0,0,1,459.15,576c-6-.46-12.08-1.35-18-2.21-3.91-.57-8-1.16-12-1.62-2.82-.33-5.67-.46-8.44-.59-2.5-.12-5.08-.24-7.57-.5-13.44-1.42-28.47-4.11-36.79-18.12-3-5-4.29-11.52-5.29-17.23a95.14,95.14,0,0,1-1-14.31c0-1.46-.06-2.93-.11-4.38-.47-14-3.29-24.76-8.88-33.93-5.44-8.93-13.36-13.68-23.55-14.13-11.73-.51-22.56,2.57-30.7,5.32-9.06,3.06-18.15,6.5-26.93,9.82q-4.82,1.83-9.65,3.63l-.19.07a13.24,13.24,0,0,0-4.42,2.34c-9.17,8.32-11.16,13.15-4.86,25.3a60.93,60.93,0,0,0,6.34,9.25c.91,1.16,1.85,2.37,2.72,3.56,4.24,5.8,8.88,12.87,11.19,21.35,2.82,10.35.26,20-8.07,30.27-3.05,3.78-5.82,7.83-8.5,11.76-1.17,1.72-2.34,3.44-3.54,5.14-13.58,13.16-20.56,31.93-20.85,32.73-1,2.78-2.05,5.55-3.1,8.32-2.36,6.28-4.81,12.77-6.83,19.3-2.31,7.48-4.67,17.42-2.27,28,2,8.84,7.59,14.07,17.62,16.47q5.41,1.29,10.83,2.54c4.22,1,8.45,2,12.66,3,8.27,2,14.24,7.58,20.6,13.51,1.57,1.47,3.13,3,4.64,4.54,4.67,4.66,9.5,9.47,15.73,12.84,11.1,6,22.07,5,32.61-2.87,4.58-3.44,8.94-7.27,13.15-11s8.84-7.79,13.53-11.25c6-4.41,12.41-8.48,18.63-12.42,4.18-2.65,8.51-5.38,12.68-8.21,14.27-9.68,28.62-19.74,42.54-29.5,10.48-7.35,19.76-11.47,29.21-13,4.89-.78,10.25-.19,14.89.42,18.86,2.5,33.3-4.53,39.61-19.28a2,2,0,0,0,.1-.31c.1-.41,10.45-41.15,37.13-42.09,10.44-.37,18.08,2,23.39,7.2,6.68,6.54,9.67,17.47,9.42,34.38a2,2,0,0,0,0,.28q.31,2.51.62,5c.45,3.67.9,7.33,1.39,11a114.7,114.7,0,0,0,9.68,33.07c3.11,6.71,6.33,13.51,9.45,20.08,5.49,11.57,11.16,23.54,16.4,35.45,5.13,11.64,5.13,23.88,0,36.36-1.95,4.76-4.16,9.52-6.3,14.13-2,4.37-4.13,8.89-6,13.43A31.59,31.59,0,0,0,620,810.14c-.15,5.25,3.55,9.09,9.22,9.55,19,1.54,33.43-6.56,42.86-24.08,1.49-2.77,2.74-5.69,3.95-8.51a93.53,93.53,0,0,1,4.18-8.88c2.34-4.18,4.06-6.2,5.55-6.56s3.86.9,6.84,2.91c6.45,4.36,12,10.31,17.2,16,8.72,9.67,18.49,19.21,33.41,20.48,5.6.47,11.28.5,16.78.53,2.73,0,5.56,0,8.33.09a23.45,23.45,0,0,1,4.59.46c9.64,2.21,13.29,6.54,15,17.82a68.42,68.42,0,0,1-38.45,72.37c-7.36,3.54-13.51,6.21-19.34,8.41-13.36,5-27.31,10.09-41.44,15-22.39,7.79-46.52-.69-57.38-20.17-3.51-6.29-5.75-13.55-7.92-20.57-.51-1.66-1-3.32-1.56-5-2.4-7.47-4.64-15.14-6.81-22.56-1.37-4.68-2.78-9.51-4.22-14.26-.43-2.43-5.76-27.2-47.28-38.65-36.67-10.11-58-7.67-69.16,7.93q-3.62,5.06-7.2,10.15c-5.9,8.36-12,17-18.34,25.24-10,13-21.49,20.45-35.17,22.85-14.89,2.61-29.86,5.51-42.54,8-9.33,1.83-22.34,6.08-27.64,21.75a248.86,248.86,0,0,1-10.85,25.81c-5.91,12.61-16.16,20.11-30.45,22.27-7,1.05-14.13-1.27-21.91-7.09-3.78-2.83-7.38-6.13-10.86-9.31-2-1.82-4-3.7-6.12-5.49-9.48-8.16-18.79-11.7-28.46-10.8a247.94,247.94,0,0,0-32.25,5.47c-13.78,3.13-26,3.05-37.5-.22-15.43-4.41-26.62-13.93-33.24-28.3-5.51-12-10.52-26.23-5.9-41.56a68.6,68.6,0,0,1,20.48-32.46c6.42-5.62,15-7.73,24.16-6,13.91,2.71,30.12,5.61,46.39,5.87a11.79,11.79,0,0,1,4.24.85c5.08,2.12,9.29,5.89,13.64,12.24q4.84,7.06,9.67,14.14c8.6,12.6,17.5,25.63,26.47,38.3,2.78,3.93,6.83,7,10.42,9.48,6.31,4.46,14,5.37,23.6,2.81,14.1-3.78,29.88-9.57,40-23.81a150.31,150.31,0,0,0,13.7-24.28,116,116,0,0,0,10.26-45.73c.21-7.9.21-16.25,0-27.09a69.32,69.32,0,0,1,8.76-36c6.69-12,16.43-22.57,31.58-34.26a142.42,142.42,0,0,1,21.17-13.32c11.19-5.83,23.68-6.43,40.51-2,20.41,5.41,37.71,8.14,54.45,8.59a2.05,2.05,0,0,0,.54-.06c.53-.12,12.92-2.8,20.88,19.73,4.31,12.18,4.36,21.37.16,27.31-3.75,5.3-10.94,8-21.37,8-8.79-1.39-14.59-7.29-20.73-13.54L523.73,739c-5.16-5.23-11.48-9.34-17.59-13.31l-1.62-1.05c-4.2-2.74-8.62-5.24-12.89-7.66-2.84-1.61-5.77-3.27-8.6-5-13.87-8.38-28.12-8.24-43.56.42-18.23,10.23-30.24,24.45-35.7,42.28-2.08,6.79-3.26,14.79-3.63,24.46-.57,15.39-.33,30.83-.06,44.11.16,8,1.65,14.18,4.67,19.46,4.23,7.39,11,11.42,20.11,12,18.56,1.16,30.46-9.81,39.65-20.71,11.3-13.39,17.75-29.5,24-45.08l.38-1c2.9-7.23,6.31-14.7,13.25-19.66,9-6.4,23.35-5.58,30.86,1.73,1.38,1.76,15.95,19.73,35,21.91,9.12,1,17.74-1.7,25.59-8.13,12.24-9.46,22.59-27.6,11.47-47.57-2.83-5.07-5.81-10.15-8.7-15.07-2.4-4.08-4.88-8.3-7.25-12.48l-.48-.85c-2.93-5.17-6-10.53-8.38-16-1.34-3-2.49-6.25-3.61-9.37-2.52-7-5.12-14.31-10.2-20.49-.64-.93-5.87-8.19-13-9.57a12.32,12.32,0,0,0-9.54,2.11l-1.4.91c-1.06.68-2.16,1.38-3.21,2.19-10.44,8.11-21.29,11.73-33.17,11l-3-.17c-7.54-.42-15.34-.86-22.88-1.89a51.52,51.52,0,0,0-32.2,5.9,220.51,220.51,0,0,0-65,53c-6,7.22-10.84,15.82-14.75,22.73-8.4,14.84-6.76,30.57-4.16,46.73a35.48,35.48,0,0,1-5.93,27c-8.22,11.9-21.41,17.89-34.17,23.67-2.59,1.18-6.6.64-10.18,0-9.3-1.77-23.55-19.47-23.08-31.85a66.61,66.61,0,0,1,4.08-19.9,28.24,28.24,0,0,0-1.51-23.12c-2.85-5.67-6.87-10.28-10.76-14.74l-1.5-1.72c-7.34-8.5-22.67-10.07-32.8-3.36-7.84,5.2-13.78,12.18-19.52,18.94L227,771.94c-6.79,7.93-15.4,11.9-24.94,11.49a84.44,84.44,0,0,1-26.92-6c-8.3-3.24-14.09-8.23-16.74-14.44-2.3-5.39-2.12-11.62.52-18a59.38,59.38,0,0,1,7.7-12.56l.44-.59c6.89-9.18,14-18.67,18.35-29.91,2.79-7.27,6.2-14.9,10.41-23.32,3-6,6.21-11.92,9.33-17.69,2-3.7,4.08-7.52,6.06-11.32,2.16-4.12,4.25-8.35,6.27-12.43q1.35-2.73,2.71-5.46c1.15-1.67,12.12-17.91,16.68-32.53l2-6.31q2.52-8.1,5-16.19c.6-1.94,1.27-3.91,1.92-5.82a97.72,97.72,0,0,0,4-13.94c1.77-9.79-2.34-18.46-7.06-26.37-.64-1.07-1.28-2.13-1.93-3.19-3.79-6.23-7.38-12.12-9-19.19-3.93-17.13,6.81-26.16,13.57-30,7.54-4.3,15.58-6.21,24.1-8.24,3.65-.87,7.41-1.76,11.09-2.86,8.5-2.53,17.24-4.85,25.68-7.1l7.25-1.93,3.16-.85c12.26-3.31,24.93-6.73,37.88-7.12,10.32-.31,17.9,4.26,23.19,14A80.84,80.84,0,0,1,387,495.77c1.07,11.41,2.27,23.56,4,35.6,2,13.7,10.22,21.81,23.69,23.43,9.32,1.13,18.91.74,28.18.37l4.1-.16c19.89-.72,37.62-7.9,53.82-15.55,10.18-4.81,15.28-13.15,16.07-26.26.2-3.29.24-6.63.28-9.86a118.15,118.15,0,0,1,1-16.42c1.56-10.08,3.73-17.65,6.83-23.83,7.94-15.84,5.23-29.81-8.55-44-14.92-15.32-31-25.8-49.3-32.05l-1.74-.6c-12.95-4.42-26.34-9-37.16-18a28.17,28.17,0,0,1-10.33-18.72c-.41-3.07-.77-6.22-1.1-9.27-.92-8.28-1.87-16.83-4.2-24.94-5.2-18.09-17.37-24.83-36.15-20-11.23,2.87-22.51,7.54-35.48,14.7l-.67.37a245.71,245.71,0,0,1-23.65,12c-16.76,7-27.77,19.21-33.68,37.31a82.62,82.62,0,0,1-16.5,29.33,62.53,62.53,0,0,1-36.37,20.79c-15.49,2.82-28.55,8.68-39.92,17.94a75.64,75.64,0,0,1-34.58,15.56c-16.82,3.09-34.66,4.64-51-4.84-7.38-4.27-14.34-9.67-21.07-14.91l-1.75-1.35C72.42,415.23,63,407.75,54,400.52Q46.1,394.26,38.22,388c-10.67-8.42-18.33-17.22-23.43-26.89A84.75,84.75,0,0,0,0,341v5.84A80.34,80.34,0,0,1,11.25,363c5.36,10.18,13.37,19.39,24.49,28.17q7.88,6.22,15.72,12.48c9.09,7.24,18.49,14.73,27.84,22L81,427c6.84,5.31,13.91,10.8,21.52,15.21,17.51,10.13,36.19,8.54,53.77,5.31a79.58,79.58,0,0,0,36.38-16.39c10.83-8.82,23.3-14.42,38.11-17.11a66.44,66.44,0,0,0,38.65-22.08,86.59,86.59,0,0,0,17.31-30.74c5.52-16.93,15.8-28.33,31.42-34.86a248.83,248.83,0,0,0,24-12.16l.67-.37c12.67-7,23.64-11.55,34.54-14.33,16.52-4.22,26.77,1.43,31.32,17.26C411,324.5,412,332.89,412.86,341c.34,3.07.7,6.25,1.12,9.36a32.42,32.42,0,0,0,11.74,21.26c11.38,9.43,25.13,14.13,38.42,18.67l1.74.6c17.64,6,33.25,16.2,47.73,31.06,12.59,12.93,15,25.07,7.84,39.37-3.29,6.55-5.57,14.5-7.2,25a121.06,121.06,0,0,0-1,17c0,3.18-.08,6.47-.27,9.67-.7,11.65-4.95,18.71-13.79,22.88-15.81,7.47-33.08,14.47-52.25,15.17l-4.11.16c-9.11.36-18.53.74-27.54-.35-11.65-1.41-18.45-8.15-20.21-20s-3-24-4-35.39a84.76,84.76,0,0,0-9.78-33.27c-6-11-15-16.42-26.83-16.07-13.42.4-26.32,3.89-38.8,7.26l-3.16.85-7.24,1.93c-8.48,2.25-17.24,4.58-25.8,7.13-3.57,1.06-7.29,1.95-10.88,2.8-8.42,2-17.12,4.07-25.15,8.66-13.14,7.49-18.78,20-15.49,34.38,1.77,7.7,5.69,14.14,9.48,20.37.64,1,1.28,2.1,1.91,3.16,5,8.37,8,15.59,6.56,23.61A94.77,94.77,0,0,1,242,569.57c-.66,1.93-1.34,3.94-2,5.93q-2.51,8.1-5,16.19l-2,6.31c-4.53,14.52-16.12,31.4-16.24,31.57a2,2,0,0,0-.14.24q-1.4,2.8-2.78,5.61c-2,4.07-4.09,8.27-6.22,12.35-2,3.77-4,7.58-6,11.27-3.14,5.8-6.39,11.8-9.39,17.81-4.27,8.54-7.72,16.29-10.56,23.67-4.12,10.73-10.77,19.58-17.81,28.95l-.44.59a62.94,62.94,0,0,0-8.2,13.44c-3.07,7.41-3.24,14.71-.51,21.12,3.08,7.22,9.64,13,19,16.59a88.44,88.44,0,0,0,28.2,6.23c10.8.47,20.54-4,28.15-12.88l1.78-2.09c5.82-6.84,11.31-13.31,18.69-18.19,8.41-5.58,21.55-4.32,27.57,2.64l1.51,1.73c3.9,4.47,7.58,8.69,10.2,13.91a24.42,24.42,0,0,1,1.3,20,70.52,70.52,0,0,0-4.3,21.08c-.51,13.49,14.26,33.64,26.33,35.93,4.19.8,9,1.39,12.58-.25,13.25-6,27-12.23,35.81-25a39.82,39.82,0,0,0,6.59-29.91c-2.48-15.43-4.07-30.41,3.69-44.13,3.83-6.77,8.6-15.2,14.35-22.15A216.53,216.53,0,0,1,450,676a47.62,47.62,0,0,1,29.75-5.45c7.7,1,15.58,1.49,23.2,1.92l2.94.17c12.7.73,24.77-3.26,35.85-11.87.9-.7,1.87-1.32,2.9-2l1.49-1a8.34,8.34,0,0,1,6.54-1.5c5.86,1.12,10.51,7.9,10.55,8l.12.16c4.67,5.66,7.05,12.31,9.57,19.36,1.14,3.18,2.32,6.47,3.72,9.64,2.5,5.64,5.58,11.08,8.56,16.34l.48.85c2.38,4.21,4.87,8.44,7.28,12.54,2.88,4.89,5.85,10,8.65,15,9.88,17.74,1.1,33.57-10.46,42.5-7,5.75-14.64,8.2-22.63,7.29-18-2-32.29-20.31-32.43-20.5l-.18-.2c-8.91-8.81-25.44-9.84-36.08-2.23-7.82,5.58-11.52,13.64-14.63,21.42l-.38,1c-6.12,15.28-12.46,31.08-23.34,44-8.55,10.14-19.55,20.36-36.34,19.3-7.8-.49-13.32-3.76-16.89-10-2.67-4.67-4-10.25-4.14-17.55-.27-13.22-.51-28.6.06-43.88.35-9.31,1.48-17,3.45-23.43,5.22-17,16.29-30.12,33.84-40,14.08-7.9,27-8.06,39.54-.49,2.87,1.74,5.83,3.41,8.7,5,4.22,2.39,8.58,4.86,12.68,7.53L504,729c5.93,3.86,12.06,7.85,16.92,12.77l1.17,1.18c6.36,6.47,12.94,13.17,23.13,14.71l.3,0c11.89,0,20.23-3.27,24.79-9.72,5-7.06,5.11-17.48.35-31-8.65-24.47-23-22.8-25.32-22.34C529,694.23,512,691.55,492,686.24c-17.87-4.74-31.25-4-43.39,2.29a146.33,146.33,0,0,0-21.77,13.7c-15.61,12-25.67,23-32.63,35.48a74.21,74.21,0,0,0-9.26,38c.2,10.78.2,19.08,0,26.91A112,112,0,0,1,375,846.8a146.53,146.53,0,0,1-13.33,23.64C352.37,883.61,338,888.92,324,892.7c-8.47,2.27-14.91,1.57-20.26-2.21-3.31-2.34-7-5.12-9.46-8.53-9-12.64-17.84-25.66-26.43-38.25q-4.83-7.08-9.67-14.15c-4.82-7-9.56-11.23-15.4-13.67a15.88,15.88,0,0,0-5.72-1.16c-15.94-.25-31.94-3.12-45.69-5.8-10.24-2-20.28.51-27.55,6.87a72.52,72.52,0,0,0-21.68,34.32c-5,16.61.27,31.76,6.1,44.39C155.34,910,167.37,920.25,184,925c12.11,3.46,25,3.55,39.48.27a244.31,244.31,0,0,1,31.73-5.38c8.53-.78,16.87,2.44,25.48,9.85,2,1.75,4.07,3.61,6,5.4,3.55,3.25,7.23,6.61,11.17,9.56,8.67,6.5,16.82,9.06,24.9,7.85,15.47-2.34,27-10.82,33.47-24.53a252,252,0,0,0,11-26.22c3.58-10.58,11.17-16.47,24.62-19.11,12.66-2.49,27.6-5.38,42.46-8s27-10.54,37.65-24.35c6.38-8.29,12.51-17,18.44-25.37q3.58-5.07,7.18-10.12c6.76-9.44,20.24-18.7,64.85-6.4,40.08,11.05,44.38,35.31,44.42,35.55a2,2,0,0,0,.06.28c1.45,4.77,2.87,9.63,4.25,14.34,2.18,7.44,4.43,15.14,6.84,22.66.52,1.63,1,3.28,1.54,4.93,2.23,7.22,4.54,14.68,8.25,21.34,11.8,21.18,38,30.43,62.19,22,14.17-4.93,28.14-10,41.54-15,5.95-2.24,12.19-5,19.67-8.54a72.4,72.4,0,0,0,40.67-76.58c-2-12.82-6.87-18.54-18.08-21.11a27.34,27.34,0,0,0-5.39-.56c-2.81-.07-5.65-.08-8.41-.1-5.42,0-11-.05-16.46-.51C730.07,806,721,797,712.76,787.94c-5.33-5.91-11.11-12.06-17.93-16.67-4.07-2.75-7-4.2-10-3.49-3.21.76-5.57,3.95-8.12,8.49a96.36,96.36,0,0,0-4.37,9.27c-1.17,2.74-2.38,5.57-3.79,8.18-8.73,16.22-21.5,23.4-39,22-2.75-.22-5.66-1.77-5.55-5.45a27.67,27.67,0,0,1,1.84-9.75c1.86-4.47,3.94-8.95,6-13.28,2.16-4.65,4.39-9.46,6.38-14.3,5.46-13.33,5.44-27-.07-39.48-5.26-12-10.95-23.95-16.45-35.55-3.11-6.56-6.33-13.35-9.43-20a110.73,110.73,0,0,1-9.35-31.91c-.49-3.65-.94-7.3-1.38-11q-.3-2.45-.6-4.89c.25-18-3.12-29.82-10.62-37.16-6.05-5.93-14.91-8.72-26.33-8.34-29.05,1-40,41.59-40.83,45-5.59,12.88-18.46,19-35.35,16.74-4.92-.65-10.62-1.28-16-.41-10.06,1.61-19.87,5.95-30.91,13.68-13.87,9.72-28.21,19.77-42.45,29.44-4.12,2.79-8.42,5.51-12.57,8.14-6.28,4-12.77,8.08-18.87,12.58-4.83,3.56-9.39,7.58-13.8,11.47-4.15,3.66-8.45,7.44-12.9,10.78-9.18,6.89-18.7,7.75-28.3,2.55-5.72-3.09-10.13-7.5-14.81-12.16-1.53-1.53-3.12-3.11-4.77-4.66-6.42-6-13.06-12.2-22.36-14.45-4.23-1-8.46-2-12.7-3-3.6-.84-7.21-1.67-10.8-2.53-8.6-2.05-13-6.08-14.64-13.46-2.17-9.63-.11-18.53,2.19-26,2-6.42,4.41-12.85,6.75-19.07,1-2.79,2.1-5.57,3.11-8.36.07-.19,7-18.84,20-31.36a2,2,0,0,0,.25-.29c1.25-1.77,2.47-3.56,3.69-5.35,2.63-3.86,5.35-7.85,8.3-11.5,9.21-11.39,12-22.14,8.82-33.84-2.48-9.1-7.37-16.56-11.82-22.65-.91-1.24-1.87-2.47-2.79-3.66a57.08,57.08,0,0,1-5.94-8.63c-5.4-10.42-4.06-13.19,4-20.5a10.24,10.24,0,0,1,3.13-1.56l.19-.07q4.84-1.8,9.67-3.64c8.75-3.31,17.8-6.74,26.8-9.77,7.81-2.63,18.19-5.59,29.25-5.11,8.9.39,15.54,4.38,20.31,12.21,5.22,8.56,7.85,18.73,8.29,32,0,1.44.08,2.89.11,4.33a98.12,98.12,0,0,0,1.07,14.92c1.06,6.06,2.47,13,5.79,18.58,9.27,15.59,25.41,18.53,39.8,20.05,2.61.28,5.25.4,7.81.52s5.48.25,8.16.57c3.95.46,8,1,11.85,1.61,6,.87,12.12,1.76,18.24,2.24A89.06,89.06,0,0,0,494,575.7c51.59-8,119-75.31,121.8-78.18l.18-.2c1-1.33,2-2.68,3-4,3.35-4.58,6.8-9.31,10.89-13.07,8.44-7.76,19.08-9.94,32.53-6.66,14.3,3.49,28.75,9.33,45.48,18.39,13.23,7.16,21,16.48,15.92,38.67-3.39,14.82-11,27.73-18,38.4a131.84,131.84,0,0,1-21.27,25,10.92,10.92,0,0,1-3.07,1.64c-.63.26-1.29.54-1.93.86l-.19.11a112.83,112.83,0,0,0-24.59,22.65c-14.69,18.54-18.1,37.67-9.85,55.3a62.82,62.82,0,0,0,49.08,36.2c22,2.77,44.06-6.38,58.95-24.48,5.9-7.18,8.47-13.46,7.86-19.21-.91-8.45-8.5-14.46-16.55-20.82-12.95-10.24-27.62-21.84-21.39-47.11l8.81-23.9q10.33-28,20.65-56c3.91-10.61,5.39-20.38,4.54-29.86-1.35-15-10.32-25-25.95-29.1a99.18,99.18,0,0,0-13.48-2.23A96.13,96.13,0,0,1,704.42,456c-8.85-2.31-17.67-5.59-26.19-8.76l-4.15-1.54c-11.64-4.3-22-5.83-32.43-4.83l-.31.06c-.44.12-44.58,11-95.11-28.88l-.22-.15c-2.33-1.38-4.76-2.68-7.11-3.93-5-2.68-10.22-5.46-14.45-9.05-17-14.43-33.68-25.56-51.11-34-11.84-5.76-19.88-14.72-24.58-27.42-3.64-9.83-7.58-21.51-9.26-33.62-2.12-15.32,1.82-22,15.06-25.63,10.18-2.77,18.32-7.4,24.89-14.17q2.53-2.61,5-5.25a233.07,233.07,0,0,1,17.4-17c14.39-12.22,28.67-20.14,43.57-24.2a165.39,165.39,0,0,0,76.25-41.81c15.37-14.89,22.63-27.69,23.38-29.06,9.31-13.35,13.7-25.44,13.83-38,0-3.82.25-7.72.46-11.5.19-3.43.39-7,.45-10.49.16-8.64,3.28-13.31,10.76-16.1C693,62.16,715.78,50.65,742.42,34.3c9.42-5.78,18.41-7.64,27.51-5.68s15,7.52,18,16.6c.81,2.49,1.44,5.13,2,7.68a90.67,90.67,0,0,0,2.6,9.33c7,19.77,25.15,23.13,39.74,19.67a37.45,37.45,0,0,0,12.65-5.79c4.82-3.41,7.59-7.57,8.22-12.36.75-5.66-1.63-12-6.88-18.35-4.16-5-8.81-9.74-13.3-14.29-2.7-2.73-5.49-5.56-8.13-8.41A45.4,45.4,0,0,1,813.44,0h-4.08a49.37,49.37,0,0,0,12.56,25.42c2.68,2.9,5.5,5.75,8.22,8.51,4.43,4.49,9,9.13,13.07,14,4.52,5.47,6.59,10.75,6,15.27-.48,3.64-2.69,6.88-6.57,9.62A33.31,33.31,0,0,1,831.38,78c-16.72,4-29.82-2.44-35.05-17.12A87.75,87.75,0,0,1,793.85,52c-.63-2.62-1.28-5.34-2.13-8-3.36-10.38-10.6-17-20.94-19.28C760.76,22.56,750.52,24.63,740.32,30.89Z"/><path class="da8badf2-12f9-4e6c-8078-a81b2ea03c6b" d="M153.9,630.83c10.25-21.32,8.14-32.2,8-32.65a2.19,2.19,0,0,0-.06-.22c-.11-.34-.24-.68-.37-1a10.67,10.67,0,0,1-.54-1.71c-3-16.24-12.41-26.36-28-30.09-9.26-2.21-19-1.54-30.55,2.13a191.27,191.27,0,0,1-36.13,8c-9.11,1-18.54,2.13-26.92,7.58-3.23,2.1-6.69,4-10,5.9-2.09,1.17-4.25,2.37-6.35,3.62-2.34,1.39-4.1,1.92-5.1,1.53s-1.91-2-2.82-5a132.54,132.54,0,0,1-4-20.16c-1.54-11.06-5.18-20-11-27.06v6.72c3.61,5.72,5.92,12.59,7.07,20.89a135.91,135.91,0,0,0,4.16,20.77c1,3.24,2.3,6.39,5.2,7.52,2.27.88,5,.31,8.59-1.82,2.06-1.22,4.2-2.42,6.26-3.57,3.4-1.9,6.92-3.87,10.26-6,7.59-4.94,16.54-6,25.19-7a195.22,195.22,0,0,0,36.88-8.17C114.47,567.63,123.5,567,132,569c14.12,3.38,22.3,12.18,25,26.93a13.85,13.85,0,0,0,.73,2.4c.09.25.18.49.27.74.16,1.08,1.33,11.23-7.86,30.25a2,2,0,0,0-.17.5c-2.25,12-8.86,21.6-19.66,28.63-16.52,10.75-31.07,17.21-45.78,20.32-10.55,2.23-22,2.55-35.88,1-3-.33-6-.7-8.94-1.07C29.07,677.39,18,676,6.87,676.65c-2.35.13-4.64.17-6.87.13v4c2.31,0,4.67,0,7.1-.14,10.77-.61,21.65.74,32.17,2,3,.37,6,.75,9,1.08,14.37,1.58,26.17,1.24,37.15-1.08,15.21-3.21,30.18-9.85,47.13-20.88C144.21,654.22,151.4,643.79,153.9,630.83Z"/><path class="da8badf2-12f9-4e6c-8078-a81b2ea03c6b" d="M135.82,909.27l2.9,6.24C145,929,157.63,933,169,935.76c19.44,4.64,39.31,4.28,58.52,3.92q4.25-.08,8.5-.14c12.22-.14,23.28,3.86,33.67,12.28,4.44,3.6,8.81,7.5,13,11.26,3.58,3.19,7.28,6.49,11,9.62,11.09,9.25,23.51,13.26,36.94,11.91,17.12-1.72,30.69-9.22,40.33-22.28,10-13.51,19.59-27.68,28.59-41,10.65-15.81,24.82-25.53,43.31-29.71,15.26-3.45,28.28-12.07,38.71-25.63,2.81-3.65,4.83-6.57,6.78-9.39,2.5-3.61,4.86-7,8.6-11.54,1.21-1.3,21.39-22.06,57.51-7.71l.23.08c.1,0,10.08,2.71,21.74,12.37,10.76,8.92,25.2,25.78,32.88,55.47a64.46,64.46,0,0,0,26.89,37.63l5,3.35c7.07,4.77,14.38,9.7,21.5,14.65,8.51,5.92,17.13,6.63,25.6,2.09l5.09-2.71c4.76-2.52,9.68-5.13,14.44-7.85,5-2.85,10-5.8,14.91-8.66,6.08-3.57,12.37-7.25,18.61-10.76,3.25-1.82,6.68-3.51,10-5.15a131.4,131.4,0,0,0,16.52-9.16c9-6.2,17.81-13,26.33-19.52,4.86-3.74,9.88-7.6,14.88-11.31,7.49-5.56,15.16-11.74,19.48-20.83a198.06,198.06,0,0,0,8-20.8l.13-.37c2.69-7.84,7.47-13.56,13.81-16.53s14-3,21.6-.17c7.19,2.73,13.63,7.74,19.68,15.31q2.86,3.58,5.7,7.18c5.6,7.08,11.38,14.4,17.44,21.31,5.37,6.12,13.23,9.82,22.73,10.69,10.65,1,21.15-.78,31.3-2.47,2.06-.34,4.12-.69,6.18-1,9.49-1.48,17.85-3,25.58-4.52,2.64-.53,5.29-1,7.95-1.55,3-.58,6.05-1.16,9.1-1.79v-4.08c-3.3.69-6.6,1.32-9.85,1.94-2.67.51-5.33,1-8,1.56-7.67,1.55-16,3-25.41,4.49-2.08.32-4.15.67-6.23,1-9.9,1.65-20.14,3.36-30.27,2.43-8.58-.79-15.34-3.93-20.09-9.35-6-6.83-11.75-14.11-17.31-21.15q-2.85-3.61-5.72-7.2c-6.51-8.14-13.51-13.56-21.38-16.55-8.59-3.26-17.36-3.16-24.72.29s-12.85,10-15.9,18.86l-.13.37A195,195,0,0,1,825,865.29c-3.93,8.26-11.17,14.08-18.25,19.34-5,3.73-10.06,7.6-14.93,11.35-8.47,6.52-17.23,13.26-26.16,19.4a128.38,128.38,0,0,1-16,8.87c-3.37,1.66-6.84,3.38-10.18,5.25-6.28,3.52-12.58,7.22-18.68,10.79-4.86,2.85-9.89,5.8-14.87,8.64-4.71,2.69-9.61,5.28-14.34,7.79l-5.1,2.71c-7.14,3.82-14.15,3.21-21.43-1.85s-14.46-9.91-21.55-14.68l-5-3.35c-13-8.76-21.46-20.64-25.26-35.32-8-30.85-23.11-48.41-34.39-57.7-11.72-9.66-21.67-12.62-23-13-39.06-15.46-61.63,8.56-61.92,8.88-3.87,4.67-6.29,8.17-8.84,11.86-1.92,2.78-3.91,5.65-6.66,9.23-9.84,12.79-22.09,20.93-36.42,24.16-19.53,4.42-34.49,14.68-45.74,31.38-9,13.32-18.57,27.44-28.49,40.89-8.95,12.12-21.57,19.08-37.51,20.68-12.32,1.24-23.74-2.47-34-11-3.71-3.09-7.38-6.37-10.93-9.54-4.25-3.79-8.66-7.72-13.17-11.38-10.92-8.86-22.53-13.18-35.47-13.18H236c-2.84,0-5.68.09-8.52.14-19,.35-38.57.71-57.51-3.81-13.34-3.19-22.61-7.31-27.58-18l-2.9-6.25c-6.62-14.23-13.46-29-19.47-43.7-7.46-18.31-18.25-31.51-33-40.36-14.89-8.94-29.75-10.62-44.15-5a74.75,74.75,0,0,0-21,12.3A90.09,90.09,0,0,1,0,844.72v4.34a93.33,93.33,0,0,0,24.42-15.18,70.68,70.68,0,0,1,19.87-11.62c13.19-5.16,26.86-3.57,40.64,4.7,14,8.39,24.22,21,31.34,38.44C122.32,880.23,129.18,895,135.82,909.27Z"/><path class="da8badf2-12f9-4e6c-8078-a81b2ea03c6b" d="M812.67,1025.51c-.72-6.88.15-13.41,1.11-19.51,1.74-11.14,7.81-19.35,18-24.38,13.72-6.76,25.52-16.59,35.93-25.26a49.43,49.43,0,0,1,13.41-7.66c3.59-1.41,6.74-1.53,9.36-.34,2.79,1.27,5,4,6.42,8,1.52,4.22,2.82,8.64,4.08,12.9.64,2.17,1.28,4.33,2,6.49,2.66,8.54,8.45,13.48,15.89,13.54H919c5.45,0,10.92-2.92,15.75-5.51a92.42,92.42,0,0,0,9.83-6.37c1.92-1.36,3.9-2.77,5.89-4a42.19,42.19,0,0,1,23.39-6.73c3.53,0,7.1,0,10.57,0,2.81,0,5.63,0,8.44,0,8.16,0,16.43-.33,24.95-1.1v-4c-8.53.79-16.8,1.17-24.92,1.12-2.83,0-5.65,0-8.48,0-3.45,0-7,0-10.51,0A45.93,45.93,0,0,0,948.31,970c-2.07,1.32-4.1,2.76-6.06,4.15a88.11,88.11,0,0,1-9.41,6.11c-4.45,2.38-9.5,5.06-14,5-5.59,0-10-4-12.11-10.73-.67-2.14-1.3-4.29-1.94-6.44-1.28-4.32-2.6-8.79-4.15-13.12-1.82-5.05-4.76-8.63-8.53-10.33-3.59-1.63-7.91-1.54-12.48.26a53.49,53.49,0,0,0-14.5,8.31C854.94,961.81,843.34,971.47,830,978c-11.46,5.65-18.26,14.85-20.21,27.36-1,6.36-1.9,13.19-1.13,20.55q.25,2.4.67,4.68h4.08C813.12,1029,812.85,1027.26,812.67,1025.51Z"/><path class="da8badf2-12f9-4e6c-8078-a81b2ea03c6b" d="M271.06,1030.61c3.77-10.78,2.19-22.08-4.8-34.35-9.45-16.58-24.85-26.31-47.09-29.73A189.67,189.67,0,0,0,191,964.7c-.06,0-.17,0-.25,0a1,1,0,0,0-.53,0c-1.36.4-2.82.73-4.23,1-3.27.73-6.65,1.48-9.39,3.29-5.88,3.87-12.53,8.64-17.16,14.69a296.24,296.24,0,0,0-22.14,33.53,42.83,42.83,0,0,0-5,13.32h2a41.53,41.53,0,0,1,4.74-12.33A294.13,294.13,0,0,1,161,985c4.45-5.81,10.93-10.45,16.67-14.23,2.44-1.6,5.5-2.29,8.73-3,1.43-.32,2.92-.65,4.33-1.07a1,1,0,0,0,.25,0,187.81,187.81,0,0,1,27.88,1.8c21.6,3.33,36.53,12.73,45.66,28.75,6.82,12,8.27,22.94,4.41,33.36Z"/><path class="da8badf2-12f9-4e6c-8078-a81b2ea03c6b" d="M46.13,929.95c6.82-5.85,13.1-12.72,12.92-23.27-.09-5.1-2.28-9.07-6.18-11.19-4.16-2.27-9.67-4.95-15.3-5.56-7.18-.78-14.53-.91-21.64-1-2.92,0-5.95-.1-8.92-.2a.94.94,0,0,0-.28,0,1,1,0,0,0-.49,0c-2,.51-4.1,1-6.16,1.46l-.08,0v2.05l.53-.12c2.07-.48,4.14-1,6.2-1.47h0l.22,0c3,.1,6,.15,8.95.2,7.06.12,14.36.25,21.46,1,5.29.57,10.56,3.15,14.56,5.33,3.24,1.76,5.06,5.13,5.13,9.47.16,9.18-4.77,15.32-12.22,21.71S28.64,939.2,17.71,942.16A69.55,69.55,0,0,1,0,944.85v2a71.74,71.74,0,0,0,18.23-2.78C29.45,941,38.58,936.42,46.13,929.95Z"/><path class="da8badf2-12f9-4e6c-8078-a81b2ea03c6b" d="M208.73,846.84a96.2,96.2,0,0,0-12.12-2.29c-1.79-.26-3.64-.53-5.45-.84a1,1,0,0,0-.42,0,1,1,0,0,0-.63,0c-1.39.57-2.86,1.08-4.28,1.58a43.66,43.66,0,0,0-9.31,4.12c-15.12,9.78-15.61,30.07-7.41,43.27,4.89,7.86,11.12,13.06,19,15.91A38.49,38.49,0,0,0,201.25,911c7.11,0,14.44-2,22.14-6a61.28,61.28,0,0,0,13.19-9.14c11.23-10.36,11.94-21.23,2.13-32.3C230,853.73,218.12,849.46,208.73,846.84Zm26.5,47.54a59.24,59.24,0,0,1-12.75,8.83c-12,6.22-23,7.38-33.65,3.55-7.48-2.68-13.37-7.62-18-15.08-7.71-12.39-7.3-31.41,6.79-40.53a42.13,42.13,0,0,1,8.89-3.91c1.4-.5,2.86-1,4.26-1.57h.07c1.83.31,3.69.58,5.5.84a94.82,94.82,0,0,1,11.87,2.24c9.13,2.55,20.68,6.69,29,16.11C246.42,875.25,245.79,884.63,235.23,894.38Z"/><path class="da8badf2-12f9-4e6c-8078-a81b2ea03c6b" d="M442,741.2h-.28a2.53,2.53,0,0,0-.9.07c-15.5,4.14-20.29,16.82-23.16,29.91a90.39,90.39,0,0,0-2,21.06,69.5,69.5,0,0,0,3.11,20.18c3.06,9.21,8.33,12.47,12.2,13.59a15.47,15.47,0,0,0,4.29.59A22.86,22.86,0,0,0,449.47,821c11.53-9.47,17.62-22.17,18.11-37.73a53.39,53.39,0,0,0-9-32C454.15,744.5,448.88,741.29,442,741.2Zm20.56,41.92c-.44,14.05-5.92,25.5-16.28,34-4.57,3.75-9.77,5.28-13.92,4.08-4-1.14-6.94-4.63-8.85-10.37a64.58,64.58,0,0,1-2.86-18.71,85.33,85.33,0,0,1,1.9-19.87c2.9-13.24,7.29-22.74,19.27-26.07H442c5.11.07,9,2.49,12.48,7.85A48.54,48.54,0,0,1,462.58,783.12Z"/><path class="da8badf2-12f9-4e6c-8078-a81b2ea03c6b" d="M92.91,765c2.52-7.51,1.23-15.38-3.75-22.77-5.59-8.3-14.62-12.73-27.61-13.55-13.47-.85-26.3,2.63-39.34,6.59A57,57,0,0,1,0,737.5v2a58.93,58.93,0,0,0,22.79-2.32c12.86-3.9,25.5-7.33,38.64-6.5,12.5.79,20.79,4.82,26.08,12.67,3.22,4.78,6.44,12.3,3.51,21-2.47,7.36-8.25,11.41-18.72,13.16-7.7,1.28-15.61,2.14-23.26,3-6.29.68-12.8,1.39-19.17,2.33C21.55,784,13,785.31,5.2,788.5l-2.71,1.11-2.49,1v2.16l3.25-1.34L6,790.35c7.54-3.1,16-4.34,24.19-5.55,6.33-.93,12.82-1.64,19.1-2.32,7.68-.83,15.62-1.69,23.38-3C79.63,778.33,89.36,775.56,92.91,765Z"/><path class="da8badf2-12f9-4e6c-8078-a81b2ea03c6b" d="M83.62,798.21c-4.5-.6-8.22-1-11.72-1.24a1,1,0,0,0-1.07.93,1,1,0,0,0,.93,1.07c3.46.25,7.15.64,11.6,1.23l.27,0h.13a1,1,0,0,0,.13-2Z"/><path class="da8badf2-12f9-4e6c-8078-a81b2ea03c6b" d="M78.4,708.75l4.79,0a1,1,0,0,0,0-2h0c-4,0-8,0-12,0h0a1,1,0,0,0,0,2C73.58,708.73,76,708.75,78.4,708.75Z"/><path class="da8badf2-12f9-4e6c-8078-a81b2ea03c6b" d="M139.31,707.7a1,1,0,0,0,1.37-.34c1-1.6,1.83-3.21,2.58-4.78a7.36,7.36,0,0,0,.79-3.16,4.38,4.38,0,0,0-2.34-4,1,1,0,0,0-.94,1.77,2.38,2.38,0,0,1,1.28,2.24,5.4,5.4,0,0,1-.6,2.3c-.73,1.52-1.57,3.07-2.49,4.62A1,1,0,0,0,139.31,707.7Z"/><path class="da8badf2-12f9-4e6c-8078-a81b2ea03c6b" d="M123.58,762.23a1,1,0,0,0-1.06-.93,1,1,0,0,0-.93,1.06q.2,3.11.42,6.22.2,2.88.38,5.75a1,1,0,0,0,1,.94h.07a1,1,0,0,0,.93-1.06q-.18-2.88-.39-5.76C123.85,766.37,123.71,764.3,123.58,762.23Z"/><path class="da8badf2-12f9-4e6c-8078-a81b2ea03c6b" d="M23.2,709.86h0l12-.52a1,1,0,0,0-.08-2l-12,.52a1,1,0,0,0,0,2Z"/><path class="da8badf2-12f9-4e6c-8078-a81b2ea03c6b" d="M47.22,708.89l4.8-.14c2.21-.05,4.55-.08,7.17-.09a1,1,0,0,0,0-2h0c-2.63,0-5,0-7.21.09l-4.81.14a1,1,0,0,0,0,2Z"/><path class="da8badf2-12f9-4e6c-8078-a81b2ea03c6b" d="M49.83,797.74l-2.09.38a1,1,0,0,0,.19,2l.19,0,2-.37a76.78,76.78,0,0,1,9.72-1,1,1,0,0,0,1-1,1,1,0,0,0-1-1A78.74,78.74,0,0,0,49.83,797.74Z"/><path class="da8badf2-12f9-4e6c-8078-a81b2ea03c6b" d="M36,801.08a117.51,117.51,0,0,0-11.33,4.24,1,1,0,0,0,.79,1.84A115.59,115.59,0,0,1,36.6,803a1,1,0,0,0-.6-1.91Z"/><path class="da8badf2-12f9-4e6c-8078-a81b2ea03c6b" d="M12.21,709.27a1,1,0,0,0-1-1h0c-4,.12-7.7.2-11.18.23v2c3.5,0,7.19-.11,11.24-.23A1,1,0,0,0,12.21,709.27Z"/><path class="da8badf2-12f9-4e6c-8078-a81b2ea03c6b" d="M123.39,737.41a1,1,0,0,0-1.18.77A57.29,57.29,0,0,0,121,749.84v.47a1,1,0,0,0,1,1h0a1,1,0,0,0,1-1v-.46a55.3,55.3,0,0,1,1.14-11.25A1,1,0,0,0,123.39,737.41Z"/><path class="da8badf2-12f9-4e6c-8078-a81b2ea03c6b" d="M130.49,697.3a1,1,0,0,0-1.24-.68,36,36,0,0,0-7.15,2.85c-1.28.69-2.62,1.33-4,1.92a1,1,0,0,0,.79,1.84c1.41-.61,2.8-1.28,4.13-2a34.2,34.2,0,0,1,6.76-2.69A1,1,0,0,0,130.49,697.3Z"/><path class="da8badf2-12f9-4e6c-8078-a81b2ea03c6b" d="M13.8,810.6c-2.72,1.47-5.51,3.09-8.3,4.81q-1,.64-2.09,1.25a1,1,0,1,0,1,1.73q1.07-.62,2.14-1.28c2.76-1.7,5.51-3.3,8.2-4.75a1,1,0,0,0-1-1.76Z"/><path class="da8badf2-12f9-4e6c-8078-a81b2ea03c6b" d="M117.88,795.91a1,1,0,1,0,1.32,1.5,16.44,16.44,0,0,0,5.68-11.09,1,1,0,0,0-2-.15A14.45,14.45,0,0,1,117.88,795.91Z"/><path class="da8badf2-12f9-4e6c-8078-a81b2ea03c6b" d="M95.53,801.87a68.49,68.49,0,0,0,7.4.45,45.4,45.4,0,0,0,4.79-.24,1,1,0,0,0,.89-1.1,1,1,0,0,0-1.1-.89,54.41,54.41,0,0,1-11.76-.21,1,1,0,0,0-.22,2Z"/><path class="da8badf2-12f9-4e6c-8078-a81b2ea03c6b" d="M126.49,727.92a1,1,0,0,0,1.32-.5,59.71,59.71,0,0,1,5.93-10.18,1,1,0,0,0-1.62-1.17A61.71,61.71,0,0,0,126,726.59,1,1,0,0,0,126.49,727.92Z"/><path class="da8badf2-12f9-4e6c-8078-a81b2ea03c6b" d="M95.24,708.31a91.45,91.45,0,0,0,12-1.52,1,1,0,0,0-.39-2,89.51,89.51,0,0,1-11.76,1.49,1,1,0,0,0,.07,2Z"/><path class="da8badf2-12f9-4e6c-8078-a81b2ea03c6b" d="M459.76,1021.67h.06c5.18.89,8.45,3.95,9.65,8.93h2a13.17,13.17,0,0,0-11.36-10.9,1,1,0,0,0-.42,0,1,1,0,0,0-.65.05c-7,3-8.28,4.39-8.17,10.83h2C452.76,1025,453.63,1024.32,459.76,1021.67Z"/><path class="da8badf2-12f9-4e6c-8078-a81b2ea03c6b" d="M40.76,1017.3c-8.69-7.45-18.5-7.84-27.79-7.6l-.22,0a1,1,0,0,0-.46,0A49.33,49.33,0,0,0,0,1014v2.27a47.11,47.11,0,0,1,12.69-4.63h0a1.22,1.22,0,0,0,.28,0c8.91-.23,18.29.13,26.44,7.12a23.17,23.17,0,0,1,7.41,11.79h2.06A25.13,25.13,0,0,0,40.76,1017.3Z"/><path class="da8badf2-12f9-4e6c-8078-a81b2ea03c6b" d="M43.91,995.71c-9.81-4.16-20.09-4.1-30-4-1.63,0-3.26,0-4.89,0-.06,0-.17,0-.25,0a1,1,0,0,0-.5,0c-1.82.47-3.7.9-5.52,1.31L0,993.67v2.06L3.17,995c1.83-.42,3.72-.85,5.57-1.32h0a1,1,0,0,0,.25,0c1.64,0,3.28,0,4.91,0,9.73-.07,19.8-.13,29.23,3.87,11.64,4.94,18.72,11.32,22.28,20.09a44.18,44.18,0,0,1,3,13h2a46.21,46.21,0,0,0-3.18-13.72C63.48,1007.6,56.06,1000.87,43.91,995.71Z"/><path class="da8badf2-12f9-4e6c-8078-a81b2ea03c6b" d="M174.13,1026.54c-2.22-16.13,9-33,24.6-36.87h0l.19,0c1.75.11,3.53.14,5.25.17a55.81,55.81,0,0,1,11.06.94c16,3.61,22.52,12.42,20.52,27.73a60.59,60.59,0,0,1-2.81,12.07h2.11a63.26,63.26,0,0,0,2.68-11.81c2.13-16.32-5.09-26.11-22.06-29.94a57.27,57.27,0,0,0-11.46-1c-1.7,0-3.46-.07-5.17-.17a1,1,0,0,0-.31,0,1,1,0,0,0-.49,0c-16.5,4.1-28.45,22-26.09,39.09.18,1.29.41,2.55.67,3.8h2C174.58,1029.28,174.32,1027.92,174.13,1026.54Z"/><path class="da8badf2-12f9-4e6c-8078-a81b2ea03c6b" d="M86.71,1006.59C85,995.09,75.5,989.2,67.39,985.36c-13.24-6.27-27.76-9.43-44.39-9.66a.75.75,0,0,0-.26,0,1,1,0,0,0-.41,0c-.64.11-1.29.23-1.93.36a27.61,27.61,0,0,1-4,.59c-5.86.3-11.3.77-16.43,1.4v2c5.16-.64,10.64-1.11,16.54-1.42a29.74,29.74,0,0,0,4.24-.63c.62-.12,1.25-.25,1.87-.35l.09,0,.24,0c16.34.22,30.58,3.32,43.56,9.46,7.67,3.63,16.66,9.16,18.2,19.72a140.49,140.49,0,0,1,1.42,23.73h2A142.48,142.48,0,0,0,86.71,1006.59Z"/><path class="da8badf2-12f9-4e6c-8078-a81b2ea03c6b" d="M414.17,1016.67c-.33-13.73,5.37-25.42,16.92-34.72,10.28-8.28,20.93-13.27,32.56-15.27l.08,0,.12,0,1.91.25,5.59.75c9.22,1.24,16.54,5.68,22.39,13.56,5.49,7.41,6.3,16.28,7.09,24.86l.06.69c.44,4.75.58,9.63.71,14.35.09,3.1.19,6.3.37,9.46h2c-.18-3.18-.28-6.39-.37-9.52-.13-4.75-.27-9.66-.71-14.48l-.06-.69c-.81-8.85-1.65-18-7.48-25.87-6.18-8.34-13.94-13-23.73-14.35L466,965l-1.91-.25a1,1,0,0,0-.38,0,1,1,0,0,0-.42,0c-12,2.06-22.92,7.18-33.48,15.68-12.06,9.71-18,21.93-17.67,36.32a47.29,47.29,0,0,0,2.48,13.89h2.12A45.5,45.5,0,0,1,414.17,1016.67Z"/><path class="da8badf2-12f9-4e6c-8078-a81b2ea03c6b" d="M808.68,765.64c4.69,8.41,12.3,12.49,22.75,12.17a131.33,131.33,0,0,1,21.16,1c7.2.95,14.19,4.63,20.8,10.94,12.19,11.65,23.12,22.73,33.43,33.88,11.44,12.38,23.28,25.19,41.71,28.49,4.59.82,9.28,1.38,13.82,1.91,1.76.21,3.52.42,5.28.64l1.47.19c2.5.33,5.08.66,7.67.81,14.9.85,28.5-1.33,41-6.58v-4.34c-12.44,5.5-25.95,7.79-40.82,6.93-2.44-.14-5-.47-7.38-.78l-1.48-.19c-1.77-.22-3.54-.43-5.31-.64-4.48-.53-9.11-1.08-13.58-1.88-17.11-3.06-28.48-15.37-39.47-27.27-10.36-11.21-21.35-22.36-33.6-34.06-7.23-6.91-15-11-23-12a135.36,135.36,0,0,0-21.8-1c-8.92.28-15.17-3-19.13-10.12-5.35-9.6-11.41-20.47-16.38-31.37-6.59-14.46-3.35-25.22,10.19-33.86a150.73,150.73,0,0,1,16.75-8.9c11.69-5.52,24.42-8,36.44-9.79,4.18-.63,8.51-1,12.7-1.32a147.13,147.13,0,0,0,16.34-1.93c19.3-3.76,38.18-8.08,59.08-12.93,13.68-3.17,23.84-1.58,32.92,5.15,10.53,7.8,22.88,11.76,37.58,12v-4c-13.81-.28-25.38-4-35.19-11.25-10-7.39-21.48-9.25-36.21-5.83-20.87,4.84-39.71,9.15-58.95,12.9a144.33,144.33,0,0,1-15.9,1.87c-4.26.34-8.66.7-13,1.35-12.32,1.87-25.39,4.39-37.54,10.13a154.4,154.4,0,0,0-17.2,9.15c-15.11,9.64-19,22.73-11.68,38.89C797.19,745,803.3,756,808.68,765.64Z"/><path class="da8badf2-12f9-4e6c-8078-a81b2ea03c6b" d="M710.07,212.15a27.81,27.81,0,0,1,19.49,12.14c7.64,11.41,15.31,25.29,14.3,41.67-.1,1.61-.19,3.23-.27,4.84-.2,3.65-.4,7.42-.75,11.09-1.42,15.2,5.26,26.47,21,35.46,2.43,1.39,4.89,2.75,7.34,4.11,7.72,4.28,15.71,8.7,22.8,14,5.85,4.34,11.1,9.84,16.18,15.17,1.87,2,3.8,4,5.74,5.93,6.62,6.64,14.73,11.55,24.77,15,2.68.92,5.38,2,8,3.13,2.27.94,4.62,1.92,7,2.78,12.7,4.61,20.47,14.62,28,25.35A244.79,244.79,0,0,1,898,426.09c6.07,11.19,4.67,20.16-4.53,29.09l-4.13,4c-6,5.8-12.26,11.8-17.92,18.17a37,37,0,0,0-9.54,28.79,46.11,46.11,0,0,0,12,26.26c6.53,7.16,16.6,7.43,25.07.67a143,143,0,0,0,12.65-11.92c1.19-1.22,2.38-2.43,3.58-3.63,1.93-1.93,3.79-4,5.59-5.93a96,96,0,0,1,10.38-10.25c7.68-6.16,15.93-6.62,24.5-1.37a183.59,183.59,0,0,1,15.2,10.82c2.36,1.8,4.81,3.67,7.26,5.46,9,6.58,18.53,13.45,29,21a40.24,40.24,0,0,1,10.6,11.15v-6.7a44.79,44.79,0,0,0-8.26-7.69c-10.47-7.55-20-14.42-29-21-2.41-1.76-4.84-3.61-7.18-5.4a186.43,186.43,0,0,0-15.54-11c-10-6.14-20.08-5.57-29.1,1.66a99.17,99.17,0,0,0-10.83,10.68c-1.77,1.94-3.61,3.94-5.47,5.81-1.21,1.21-2.41,2.44-3.61,3.67a139.87,139.87,0,0,1-12.29,11.6c-6.92,5.53-14.44,5.44-19.62-.24-11.37-12.47-17-33.34-2.47-49.69,5.55-6.25,11.73-12.2,17.7-17.94l4.14-4c10.41-10.1,12.13-21.18,5.26-33.86a248.85,248.85,0,0,0-14.61-23.68c-7.55-10.82-16.08-21.81-29.87-26.82-2.29-.83-4.59-1.79-6.83-2.72-2.67-1.11-5.43-2.26-8.23-3.22-9.45-3.25-17.06-7.85-23.24-14-1.91-1.92-3.83-3.92-5.68-5.87-5.2-5.44-10.57-11.07-16.7-15.62-7.3-5.42-15.41-9.91-23.24-14.25-2.44-1.35-4.88-2.7-7.3-4.08-14.22-8.11-20.26-18.16-19-31.61.35-3.75.56-7.56.76-11.25.09-1.61.17-3.21.27-4.81,1.08-17.57-7-32.18-15-44.14a31.76,31.76,0,0,0-22.26-13.87c-3.73-.53-7.52-.8-11.2-1.05-3.88-.27-7.89-.56-11.75-1.15a82.64,82.64,0,0,1-16.58-4.37c-8.47-3.19-13.08-10.12-13-19.51.06-6.32,2.35-13.18,7-21,2.51-4.2,5.15-8.42,7.71-12.5,3.07-4.9,6.25-10,9.22-15.05,11.32-19.36,27.44-34.47,49.28-46.18a16.32,16.32,0,0,1,4.19-1.27l.26-.06c2.43-.51,4.21-.35,5.3.5s1.61,2.35,1.72,4.62c.3,6.68.16,13.31,0,18.34-.19,6.09,2.39,8.1,4.59,8.72,2.63.74,6.12-1.59,7.82-3.34,6-6.11,13.93-9.33,23.7-9.58,11.68-.3,23.64.7,35.2,1.66l2.07.17c7.49.62,15.1,1.58,22.46,2.5,3.83.48,7.65,1,11.48,1.4,11.71,1.34,19.69,6.55,24.4,15.94,3.88,7.72,6.28,16.24,7.56,26.8,1.73,14.29-1.07,25.58-8.82,35.55-7.25,9.31-16.54,16.9-25.52,24.24-2.91,2.38-5.92,4.83-8.82,7.32a135.2,135.2,0,0,1-15.57,10.93c-2.85,1.81-5.79,3.67-8.61,5.62-7.67,5.3-10.85,12-9.2,19.52,4.13,18.74,16.65,21.66,29.11,23,7.78.86,16.6,1.84,24.19,6.3,3.58,2.1,7.18,4.32,10.66,6.47,2.44,1.51,4.88,3,7.34,4.49,8.18,4.93,16.14,7.13,23.67,6.54,3.92-.31,7.88-.79,11.7-1.24A156.41,156.41,0,0,1,933.34,301c11,.17,20.36,2.45,28.49,7,5,2.79,10,6,14.8,9.13s9.73,6.32,14.82,9.15a100.41,100.41,0,0,1,26.35,20.51v-5.83a107.4,107.4,0,0,0-24.41-18.17c-5-2.77-9.86-5.94-14.59-9s-9.87-6.41-15-9.27c-8.72-4.83-18.65-7.27-30.37-7.45a160.43,160.43,0,0,0-21.67,1.6c-3.78.45-7.7.92-11.54,1.23-6.67.53-13.83-1.48-21.29-6-2.44-1.47-4.87-3-7.31-4.47-3.5-2.16-7.12-4.39-10.73-6.51-8.33-4.9-17.6-5.92-25.78-6.83-14.13-1.57-22.4-5.2-25.64-19.93-1.29-5.84,1.26-11,7.57-15.37,2.76-1.91,5.67-3.75,8.48-5.54a138.23,138.23,0,0,0,16-11.27c2.87-2.46,5.86-4.9,8.75-7.26,9.16-7.48,18.62-15.21,26.15-24.88,8.33-10.7,11.48-23.29,9.64-38.49-1.34-11-3.87-20-8-28.11-5.29-10.54-14.55-16.63-27.52-18.12-3.82-.44-7.63-.92-11.44-1.4-7.4-.93-15.05-1.89-22.63-2.52l-2.07-.17c-11.67-1-23.75-2-35.63-1.67-10.85.27-19.75,3.9-26.46,10.78-1.34,1.37-3.29,2.37-3.87,2.28-1.2-.34-1.77-1.94-1.68-4.75.16-5.1.3-11.83,0-18.65-.16-3.49-1.26-6-3.27-7.6s-5-2-8.58-1.24l-.26.05a19.59,19.59,0,0,0-5.26,1.66c-22.51,12.07-39.14,27.67-50.84,47.69-2.94,5-6.1,10.08-9.16,14.95-2.57,4.1-5.23,8.34-7.76,12.58-5,8.42-7.51,15.94-7.57,23-.1,11,5.58,19.52,15.59,23.29a86.57,86.57,0,0,0,17.38,4.58c4,.62,8.12.91,12.08,1.19C702.76,211.38,706.48,211.65,710.07,212.15Z"/><path class="da8badf2-12f9-4e6c-8078-a81b2ea03c6b" d="M569.52,992.4c14.61-17,43-15.75,43.32-15.73,4.18.05,7.54-1.37,9.46-4s2.23-6.2.9-10.07a35.36,35.36,0,0,0-2.62-5.52c-.32-.59-.64-1.18-1-1.77-1.22-2.34-2.52-4.69-3.78-7a128.15,128.15,0,0,1-7.47-14.92c-3.89-9.87-7.14-20.23-10.29-30.25l-1.23-3.92a81.63,81.63,0,0,0-9.08-25.37c-9.61-17-24.21-26.42-42.21-27.17-21.33-.94-38,8.5-50.84,28.89-2.33,3.69-5,7.29-7.62,10.78-1.75,2.34-3.55,4.76-5.25,7.21-4.78,6.88-11.86,10.82-21.64,12C440.86,908,427.31,916.09,417.59,931c-7.22,11-15.46,21.73-23.43,32.07-3.39,4.4-6.9,8.95-10.29,13.47l-2.57,3.43c-3.7,5-7.53,10.08-11.42,15-7.9,10-17.6,14.88-29.66,14.88h-.72l-1.39,0c-9.46-.14-18.39-.28-26.89-3.54-11.2-4.3-19.5-12.55-26.8-20.83-9.14-10.37-17.62-19.48-28.94-26a67.57,67.57,0,0,0-30.4-8.74c-4.77-.25-9.54-.48-14.31-.71-8.25-.39-16.79-.8-25.17-1.33-17.91-1.14-32.89,6.13-45.77,22.22-2.8,3.5-6,6.83-9.06,10.06-2.6,2.73-5.3,5.55-7.79,8.5-9.2,10.89-15,24.36-17.86,41.16h4.06c2.74-15.76,8.25-28.4,16.85-38.58,2.41-2.85,5.06-5.63,7.63-8.32,3.14-3.29,6.38-6.69,9.28-10.32,12.17-15.2,25.65-21.79,42.39-20.72,8.41.53,17,.94,25.23,1.33,4.76.23,9.53.45,14.29.71a62.76,62.76,0,0,1,28.62,8.21c10.79,6.19,19,15.06,27.93,25.15,7.64,8.66,16.36,17.31,28.37,21.92,9.17,3.52,18.88,3.66,28.27,3.8l1.38,0h.8c13.34,0,24.07-5.37,32.78-16.4,3.92-5,7.77-10.12,11.49-15.1l2.56-3.43c3.37-4.5,6.87-9,10.25-13.43,8-10.4,16.3-21.15,23.61-32.32,9-13.81,21.67-21.3,39.78-23.57,10.82-1.36,19-6,24.43-13.73,1.66-2.39,3.45-4.78,5.17-7.1,2.64-3.54,5.38-7.21,7.79-11,12.05-19.07,27.53-27.91,47.29-27,16.75.69,29.81,9.12,38.83,25A78.59,78.59,0,0,1,592.92,900a2,2,0,0,0,.07.31l1.28,4.07c3.17,10.08,6.44,20.51,10.39,30.51a130.71,130.71,0,0,0,7.69,15.4c1.25,2.24,2.54,4.56,3.73,6.86.32.62.66,1.23,1,1.85a32,32,0,0,1,2.34,4.89c.89,2.6.76,4.89-.36,6.43s-3.24,2.38-5.92,2.38H613c-1.24-.07-30.57-1.4-46.48,17.11-8.56,10-11.47,23.69-8.7,40.84h4C559.09,1014.38,561.67,1001.54,569.52,992.4Z"/><path class="da8badf2-12f9-4e6c-8078-a81b2ea03c6b" d="M697.13,1010c5.92-26,21.77-45,47.11-56.49,9.38-4.27,20-7.71,33.36-10.83h0a1,1,0,0,0,.25,0h1.88c1.34,0,2.73,0,4.08,0,4,.15,6.73,2.33,6.94,5.56a80.61,80.61,0,0,1-.44,12.83c-.6,6.44-1.37,14-2.5,21.44q-.41,2.73-.81,5.48a212.26,212.26,0,0,1-4.3,23.38,24.71,24.71,0,0,1-18.14,18.24c-1.3.35-2.62.66-3.94,1H768a26.5,26.5,0,0,0,16.61-18.7A213.62,213.62,0,0,0,789,988.3q.4-2.73.81-5.46c1.13-7.47,1.91-15.09,2.51-21.55a82.46,82.46,0,0,0,.44-13.15c-.27-4.25-3.83-7.24-8.86-7.43-1.4-.05-2.81,0-4.17,0h-1.86a1,1,0,0,0-.25,0,1,1,0,0,0-.48,0c-13.51,3.15-24.23,6.63-33.74,11-25.93,11.8-42.16,31.27-48.23,57.86-1.29,5.63-1.75,13.59,2.49,21.07H700C695.43,1023.4,695.87,1015.5,697.13,1010Z"/><path class="da8badf2-12f9-4e6c-8078-a81b2ea03c6b" d="M984.57,910.39c-4.89,12.7-.88,23.6,11.27,30.71a41.69,41.69,0,0,0,21.69,5.78h.27v-2a39.87,39.87,0,0,1-21-5.48c-11.37-6.64-15-16.42-10.41-28.26,2.74-7.13,8.72-12.15,18.28-15.36,4.25-1.43,8.73-2.47,13.08-3.47v-2.05c-4.54,1-9.23,2.12-13.72,3.63C994.06,897.22,987.5,902.78,984.57,910.39Z"/><path class="da8badf2-12f9-4e6c-8078-a81b2ea03c6b" d="M674.41,906.79a1.5,1.5,0,0,0,1.48,1.24l.26,0a53.21,53.21,0,0,0,6.13-1.46l5.63-1.69A1.5,1.5,0,0,0,687,902l-5.62,1.69a50.37,50.37,0,0,1-5.78,1.38A1.5,1.5,0,0,0,674.41,906.79Z"/><path class="da8badf2-12f9-4e6c-8078-a81b2ea03c6b" d="M697,837.72l-3.7-.24L689,837.2a1.41,1.41,0,0,0-.35,0,1.52,1.52,0,0,0-.52,0,105.79,105.79,0,0,0-11.83,2.85,1.5,1.5,0,1,0,.87,2.87,102.93,102.93,0,0,1,11.48-2.76l.15,0,4.38.28,3.69.24a1.53,1.53,0,0,0,1.6-1.4A1.5,1.5,0,0,0,697,837.72Z"/><path class="da8badf2-12f9-4e6c-8078-a81b2ea03c6b" d="M697.5,900.34a1.5,1.5,0,0,0,1.88,1q5.73-1.78,11.46-3.61a1.5,1.5,0,0,0-.91-2.86q-5.71,1.82-11.43,3.6A1.5,1.5,0,0,0,697.5,900.34Z"/><path class="da8badf2-12f9-4e6c-8078-a81b2ea03c6b" d="M721,840.28l-.43-.05c-3.64-.47-7.55-1-11.51-1.41a1.5,1.5,0,0,0-.33,3c3.94.44,7.83.94,11.46,1.4l.42.05h.19a1.5,1.5,0,0,0,.19-3Z"/><path class="da8badf2-12f9-4e6c-8078-a81b2ea03c6b" d="M720.38,893.07a1.5,1.5,0,0,0,1.89,1q5.71-1.86,11.4-3.77a1.5,1.5,0,0,0-1-2.85q-5.69,1.9-11.38,3.76A1.5,1.5,0,0,0,720.38,893.07Z"/><path class="da8badf2-12f9-4e6c-8078-a81b2ea03c6b" d="M751.09,874.47a26.68,26.68,0,0,1-7.9,8,1.5,1.5,0,1,0,1.67,2.49,29.66,29.66,0,0,0,8.77-9,1.5,1.5,0,1,0-2.55-1.58Z"/><path class="da8badf2-12f9-4e6c-8078-a81b2ea03c6b" d="M745,844a22.72,22.72,0,0,0-2.29-.64c-2.82-.63-5.92-1.16-9.76-1.66a1.5,1.5,0,0,0-.39,3c3.75.49,6.76,1,9.49,1.62a20,20,0,0,1,2,.56,1.5,1.5,0,0,0,1-2.84Z"/><path class="da8badf2-12f9-4e6c-8078-a81b2ea03c6b" d="M641.12,880.15a1.5,1.5,0,0,0-1.26,1.7,33.7,33.7,0,0,0,4,11.84,1.5,1.5,0,0,0,2.61-1.49,30.72,30.72,0,0,1-3.6-10.79A1.5,1.5,0,0,0,641.12,880.15Z"/><path class="da8badf2-12f9-4e6c-8078-a81b2ea03c6b" d="M756.2,865.54h.17a1.5,1.5,0,0,0,1.49-1.34,21.27,21.27,0,0,0,.13-2.32,18.84,18.84,0,0,0-2.88-10.14,1.5,1.5,0,0,0-2.53,1.61,15.85,15.85,0,0,1,2.41,8.53,18.21,18.21,0,0,1-.11,2A1.5,1.5,0,0,0,756.2,865.54Z"/><path class="da8badf2-12f9-4e6c-8078-a81b2ea03c6b" d="M654.67,852.38a1.5,1.5,0,0,0,.77-.21c.68-.4,1.39-.8,2.11-1.17,2.8-1.46,5.66-2.82,8.48-4a1.5,1.5,0,1,0-1.17-2.76c-2.89,1.23-5.82,2.62-8.69,4.12-.77.4-1.53.83-2.26,1.26a1.5,1.5,0,0,0,.77,2.79Z"/><path class="da8badf2-12f9-4e6c-8078-a81b2ea03c6b" d="M651.87,900.91a1.5,1.5,0,0,0,.32,2.1c.62.46,1.28.9,2,1.33a27.11,27.11,0,0,0,9.53,3.75l.28,0a1.5,1.5,0,0,0,.28-3,24.13,24.13,0,0,1-8.48-3.34c-.62-.39-1.21-.8-1.78-1.22A1.5,1.5,0,0,0,651.87,900.91Z"/><path class="da8badf2-12f9-4e6c-8078-a81b2ea03c6b" d="M646.56,857.49a1.5,1.5,0,0,0-2.1.3,24.83,24.83,0,0,0-4.77,11.68,1.5,1.5,0,0,0,1.28,1.69h.21a1.5,1.5,0,0,0,1.48-1.3,21.87,21.87,0,0,1,4.19-10.29A1.5,1.5,0,0,0,646.56,857.49Z"/><path class="da8badf2-12f9-4e6c-8078-a81b2ea03c6b" d="M942.09,730.72a1,1,0,0,0-.47,0,1,1,0,0,0-.56,0c-9.46,3.05-11.91,7.71-9,17.2,3.54,11.63,9.54,20.38,17.81,26a19.47,19.47,0,0,0,17.36,1.93,14.27,14.27,0,0,0,9.14-9.94c1.86-7.33-1.93-12.61-6.33-17.81A51.06,51.06,0,0,0,942.09,730.72Zm32.32,34.73A12.32,12.32,0,0,1,966.5,774,17.39,17.39,0,0,1,951,772.3c-8-5.44-13.56-13.6-17-24.94-2.56-8.41-.7-12,7.66-14.7h0a49.1,49.1,0,0,1,26.86,16.76C972.54,754.22,976,759,974.41,765.46Z"/><path class="da8badf2-12f9-4e6c-8078-a81b2ea03c6b" d="M1017.8,790.67c-13.94,5.73-28.34,11.42-43.58,13.51-19.62,2.7-33.65-2.42-42.87-15.67-6.62-9.5-12-20.11-16.46-29.31-3.94-8.07-8.55-18.89-9.15-31-.55-11,3.33-17.09,13-20.48a47.65,47.65,0,0,1,5.34-1.41c.86-.19,1.71-.38,2.56-.6h0l.17,0c9.28.74,16.11,2.4,22.15,5.37,7,3.45,14.2,6.9,21.14,10.23s14.25,6.84,21.34,10.33a75.71,75.71,0,0,0,26.39,7.89v-2a73.83,73.83,0,0,1-25.51-7.67c-7.1-3.49-14.34-7-21.35-10.33s-14.1-6.77-21.12-10.22c-6.28-3.09-13.34-4.81-22.88-5.57a1,1,0,0,0-.33,0,1,1,0,0,0-.49,0c-.83.21-1.67.4-2.51.58a49.13,49.13,0,0,0-5.56,1.48c-10.49,3.69-14.9,10.61-14.31,22.46.63,12.52,5.33,23.58,9.35,31.82,4.53,9.27,9.92,20,16.62,29.58,8,11.55,19.48,17.23,34.82,17.23a73.23,73.23,0,0,0,10-.72c15.2-2.09,29.49-7.67,43.3-13.33Z"/><path class="da8badf2-12f9-4e6c-8078-a81b2ea03c6b" d="M1010.67,821.9a78.35,78.35,0,0,1-11.27,3.61,1,1,0,0,0,.23,2l.23,0a80.42,80.42,0,0,0,11.56-3.71,1,1,0,0,0-.75-1.85Z"/><path class="da8badf2-12f9-4e6c-8078-a81b2ea03c6b" d="M931.05,815.69a1,1,0,0,0-1.27,1.55,49.69,49.69,0,0,0,10.32,6.53A1,1,0,0,0,941,822,47.65,47.65,0,0,1,931.05,815.69Z"/><path class="da8badf2-12f9-4e6c-8078-a81b2ea03c6b" d="M913.74,797.93a1,1,0,0,0-.22,1.4,120.24,120.24,0,0,0,7.6,9.41,1,1,0,1,0,1.49-1.34,118.32,118.32,0,0,1-7.47-9.25A1,1,0,0,0,913.74,797.93Z"/><path class="da8badf2-12f9-4e6c-8078-a81b2ea03c6b" d="M980.92,827.65h-.55c-1.51,0-3,0-4.54-.1a1,1,0,0,0-1,1,1,1,0,0,0,1,1q2.3.08,4.6.1h.56c2.33,0,4.67-.1,6.95-.28a1,1,0,0,0,.92-1.08,1,1,0,0,0-1.08-.92C985.48,827.56,983.2,827.65,980.92,827.65Z"/><path class="da8badf2-12f9-4e6c-8078-a81b2ea03c6b" d="M960.42,826.69a59,59,0,0,1-8.33-1.07,1,1,0,0,0-.4,2,61,61,0,0,0,8.61,1.1l3.44.21h.06a1,1,0,0,0,.06-2Z"/><path class="da8badf2-12f9-4e6c-8078-a81b2ea03c6b" d="M891.91,756.41a1,1,0,1,0-1.79.9c1.33,2.64,2.63,5.3,3.92,8l1.37,2.8a1,1,0,1,0,1.8-.88l-1.37-2.8C894.54,761.73,893.23,759.06,891.91,756.41Z"/><path class="da8badf2-12f9-4e6c-8078-a81b2ea03c6b" d="M883.08,740.26a45.26,45.26,0,0,0-3.33-4.75,1,1,0,0,0-1.56,1.26,43.26,43.26,0,0,1,3.18,4.54c1,1.71,2.12,3.54,3.18,5.42a1,1,0,0,0,1.74-1C885.22,743.84,884.14,742,883.08,740.26Z"/><path class="da8badf2-12f9-4e6c-8078-a81b2ea03c6b" d="M901.27,777.45a1,1,0,0,0-.41,1.35c2,3.8,4,7.23,6,10.48a1,1,0,1,0,1.71-1c-2-3.21-3.9-6.6-5.91-10.37A1,1,0,0,0,901.27,777.45Z"/><path class="da8badf2-12f9-4e6c-8078-a81b2ea03c6b" d="M876,701.46a1,1,0,0,0-1.29-.58,100,100,0,0,1-11.33,3.56,1,1,0,1,0,.49,1.94,101.77,101.77,0,0,0,11.55-3.63A1,1,0,0,0,876,701.46Z"/><path class="da8badf2-12f9-4e6c-8078-a81b2ea03c6b" d="M852,708.7a1,1,0,0,0-.28-2l-.43.06c-3.59.5-7.73,1.37-11.24,4a1,1,0,0,0,1.2,1.6c3.14-2.36,7-3.16,10.32-3.63Z"/><path class="da8badf2-12f9-4e6c-8078-a81b2ea03c6b" d="M860.48,725.52h0c-.79,0-1.61,0-2.43.12a1,1,0,0,0-.9,1.09,1,1,0,0,0,1.09.9c.77-.07,1.57-.08,2.28-.11a20.51,20.51,0,0,1,8.89,2,1,1,0,0,0,.86-1.81A22.51,22.51,0,0,0,860.48,725.52Z"/><path class="da8badf2-12f9-4e6c-8078-a81b2ea03c6b" d="M841.73,725.11c-2.4-.81-4-2.08-4.7-3.67a1,1,0,0,0-1.84.78c.9,2.14,2.95,3.79,5.91,4.79a40.42,40.42,0,0,0,4.95,1.36l.2,0a1,1,0,0,0,.2-2A38.37,38.37,0,0,1,841.73,725.11Z"/><path class="da8badf2-12f9-4e6c-8078-a81b2ea03c6b" d="M1016.09,709.55a1,1,0,0,0,1,1h.71v-2h-.72A1,1,0,0,0,1016.09,709.55Z"/><path class="da8badf2-12f9-4e6c-8078-a81b2ea03c6b" d="M898.09,692.24a1,1,0,0,0-1.27-.63A107.14,107.14,0,0,0,885.54,696a1,1,0,0,0,.42,1.91,1,1,0,0,0,.42-.09,105.21,105.21,0,0,1,11.08-4.3A1,1,0,0,0,898.09,692.24Z"/><path class="da8badf2-12f9-4e6c-8078-a81b2ea03c6b" d="M908.58,689.93a1,1,0,0,0,.27,0,70.92,70.92,0,0,1,7.61-1.51c1.37-.22,2.74-.44,4.1-.7a1,1,0,0,0-.38-2c-1.34.26-2.69.48-4,.69a72.51,72.51,0,0,0-7.82,1.56,1,1,0,0,0,.27,2Z"/><path class="da8badf2-12f9-4e6c-8078-a81b2ea03c6b" d="M927.2,688a91.83,91.83,0,0,1,9.38.57h.13a1,1,0,0,0,.13-2,93.7,93.7,0,0,0-9.58-.58l-2.49-.07h0a1,1,0,0,0,0,2Z"/><path class="da8badf2-12f9-4e6c-8078-a81b2ea03c6b" d="M959.15,695.7a1,1,0,0,0,.38.08,1,1,0,0,0,.38-1.92c-4.07-1.67-7.76-3.06-11.3-4.24a1,1,0,1,0-.63,1.9C951.47,692.68,955.13,694.05,959.15,695.7Z"/><path class="da8badf2-12f9-4e6c-8078-a81b2ea03c6b" d="M993.06,708.09a102.76,102.76,0,0,0,11.95,2h.1a1,1,0,0,0,.1-2,100.66,100.66,0,0,1-11.72-1.92,1,1,0,1,0-.44,2Z"/><path class="da8badf2-12f9-4e6c-8078-a81b2ea03c6b" d="M981.41,704.82a1,1,0,0,0,.64-1.9c-3.62-1.22-7.36-2.66-11.11-4.29a1,1,0,1,0-.8,1.83C973.94,702.12,977.74,703.58,981.41,704.82Z"/><path class="da8badf2-12f9-4e6c-8078-a81b2ea03c6b" d="M998.81,1030.61h2.54a53.15,53.15,0,0,1,16.45-14.26v-2.27A55.33,55.33,0,0,0,998.81,1030.61Z"/><path class="da8badf2-12f9-4e6c-8078-a81b2ea03c6b" d="M967.61,1030.61h2.32a76.13,76.13,0,0,1,39.31-32.39,73.26,73.26,0,0,1,8.55-2.48v-2.06a77,77,0,0,0-50.19,36.92Z"/><path class="da8badf2-12f9-4e6c-8078-a81b2ea03c6b" d="M761.79,993.23a27.46,27.46,0,0,0-1.1-9.82c-2.2-6.24-8-6-12.6-5.72h-.27l-.2,0a1,1,0,0,0-.65.05c-7.77,3.41-11.54,8.46-11.53,15.42a12.6,12.6,0,0,0,12.93,12.5C755.27,1005.7,761.54,999.87,761.79,993.23Zm-24.35,0c0-6.13,3.23-10.43,10.2-13.52a.89.89,0,0,0,.28,0h.27c4.58-.22,8.91-.44,10.62,4.39a25.64,25.64,0,0,1,1,9.08c-.2,5.52-5.65,10.54-11.42,10.54A10.62,10.62,0,0,1,737.44,993.2Z"/><path class="da8badf2-12f9-4e6c-8078-a81b2ea03c6b" d="M955.75,1006.08a237.63,237.63,0,0,1-28.43,24.53h3.38a243.32,243.32,0,0,0,26.47-23.12c6.16-6.15,14.58-13.8,25.13-18.3s21.83-7.4,35.51-9.1v-2c-14,1.72-25.57,4.71-36.3,9.28S962,999.79,955.75,1006.08Z"/><path class="da8badf2-12f9-4e6c-8078-a81b2ea03c6b" d="M542.51,934a21.53,21.53,0,0,0,3,.22c8.74,0,14.55-5.69,15.75-11.68.69-3.43-.58-7.43-3.39-10.71a16.12,16.12,0,0,0-13-5.74c-9.3.4-10.85,5.27-12.11,9.19-.15.47-.3.94-.46,1.39a14.2,14.2,0,0,0,1.13,11.66A12,12,0,0,0,542.51,934Zm-8.25-16.66c.17-.47.32-1,.48-1.45,1.23-3.83,2.38-7.46,10.29-7.8h.6a14.15,14.15,0,0,1,10.76,5.05c2.41,2.81,3.51,6.18,2.95,9-1.15,5.77-7.34,11.19-16.54,9.87a10.14,10.14,0,0,1-7.57-4.72A12.13,12.13,0,0,1,534.26,917.36Z"/><path class="da8badf2-12f9-4e6c-8078-a81b2ea03c6b" d="M618.11,1030.61h2.75a10.31,10.31,0,0,1,2.55-1.8c2.88-1.4,6.29-1.14,10.13.79.64.32,1.26.66,1.87,1h3.69a35.66,35.66,0,0,0-4.66-2.81c-4.43-2.21-8.43-2.48-11.9-.8A13.33,13.33,0,0,0,618.11,1030.61Z"/><path class="da8badf2-12f9-4e6c-8078-a81b2ea03c6b" d="M51.23,659.1c5,0,9.92-.17,14.63-.43,23.27-1.28,49.35-5.48,58.14-9.37,7.31-3.23,11.73-8.26,13.13-14.95,2.21-10.49-3.7-24.68-15.8-38-16.65-18.26-68.85,10.92-71.08,12.18-.92.53-22.67,13-26.47,16-4.62,3.65-18.69,14.75-13,24.26C15.66,656.91,33.36,659.1,51.23,659.1ZM26.88,628.55c2.91-2.3,19.66-12.06,25.85-15.62,14.12-8,53.3-25.9,64.91-13.16,10.86,11.91,16.45,24.76,14.6,33.55-1.06,5-4.51,8.86-10.26,11.4-7.29,3.23-31.69,7.59-56.39,8.95-27.91,1.54-46.78-1.22-50.48-7.37C12.87,642.61,17.06,636.3,26.88,628.55Z"/><path class="da8badf2-12f9-4e6c-8078-a81b2ea03c6b" d="M391.09,631.18c.23-3.27.47-6.65.93-10.35.6-4.85-.64-8.64-3.7-11.27-9-7.71-30.83-1.67-31.76-1.41l-.28.1c-1.09.49-26.78,12.24-27.29,31.27-.15,5.44,1.12,9.42,3.87,12.17,4,4,10.33,4.75,18.38,4.75,2.59,0,5.35-.08,8.25-.17,3.21-.1,6.53-.2,10-.2C389.33,656.09,390.07,645.64,391.09,631.18Zm-21.6,20.91c-3.52,0-6.87.1-10.12.2-11,.33-19.67.59-23.69-3.42-1.93-1.93-2.82-4.94-2.7-9.23.43-15.89,22.9-26.78,24.81-27.67,5.87-1.62,21.88-4.57,27.92.63,2,1.73,2.77,4.26,2.34,7.74-.47,3.8-.73,7.39-1,10.56C386.07,645.45,385.6,652.09,369.49,652.09Z"/><path class="da8badf2-12f9-4e6c-8078-a81b2ea03c6b" d="M775.22,634.82c8.86,13.81,21.64,20.62,38.86,20.62a79.08,79.08,0,0,0,12.72-1.1c19.81-3.23,41.4-13.3,58.75-21.39l.15-.07c7.49-3.49,12-8.27,13.44-14.2,3.32-13.74-10.4-31.4-24.93-50.09-7.71-9.92-15.67-20.17-21.4-30.17-6.24-10.9-13.94-16.92-22.88-17.88-16.83-1.81-33.79,14.19-48.13,30.08-15.47,17.13-24.5,29.54-24.94,42.24C756.47,604.94,763.58,616.67,775.22,634.82ZM785.52,554c8.17-9,27.29-30.24,43.89-28.46,7.26.78,13.67,6,19.08,15.39,5.9,10.3,14,20.7,21.79,30.75,13.76,17.71,26.77,34.45,24,45.85-1.07,4.44-4.57,8-10.69,10.84l-.15.07c-34.56,16.12-81.9,38.19-104,3.7C756.47,596.33,753.57,589.38,785.52,554Z"/><path class="da8badf2-12f9-4e6c-8078-a81b2ea03c6b" d="M755.39,451.75c20.32,8.65,44.59,14,64.93,14.28h1.29c14.1,0,23.38-3.38,28.35-10.32,8.49-11.85,2.5-31.68-4.36-51-9.45-26.58-45.93-30.34-61.17-30.72l-.72,0c-19.42-.71-37.77,6.66-50.37,20.19-8.54,9.17-13.27,20.28-12.34,29C722,432.45,734.52,442.86,755.39,451.75Zm-20.6-56.18C746.47,383,763.26,376,781.17,376q1.23,0,2.47,0l.74,0c14.83.37,50.3,4,59.34,29.39,6.68,18.79,12.54,38.07,4.62,49.13-4.71,6.58-13.87,9.66-28,9.47-20.09-.28-44.09-5.56-64.17-14.12C736.29,441.44,723.88,431.37,723,423,722.11,414.83,726.63,404.32,734.79,395.57Z"/><path class="da8badf2-12f9-4e6c-8078-a81b2ea03c6b" d="M810.85,602.46c4.86,3.93,13,5.54,21.64,5.54,13.07,0,27.15-3.72,32.2-8.69,10.07-9.92.46-19.83-8.84-29.41-1.94-2-3.95-4.07-5.79-6.13a16.38,16.38,0,0,0-13.92-5.85c-8.46.68-17.78,7.5-24.33,17.8C802.25,590.73,806,598.55,810.85,602.46Zm2.65-25.67c6.22-9.79,15-16.25,22.81-16.88q.64-.05,1.26-.05a14.34,14.34,0,0,1,11,5.24c1.87,2.1,3.89,4.18,5.84,6.2,9.4,9.69,17.53,18.06,8.87,26.59-7,6.89-39.15,12.75-51.18,3C806,596,806.46,587.85,813.5,576.78Z"/></g></g></svg>